%TF.GenerationSoftware,KiCad,Pcbnew,8.0.5*%
%TF.CreationDate,2024-10-20T21:33:00-07:00*%
%TF.ProjectId,bme688-ezzat-suhaime,626d6536-3838-42d6-957a-7a61742d7375,rev?*%
%TF.SameCoordinates,Original*%
%TF.FileFunction,Paste,Top*%
%TF.FilePolarity,Positive*%
%FSLAX46Y46*%
G04 Gerber Fmt 4.6, Leading zero omitted, Abs format (unit mm)*
G04 Created by KiCad (PCBNEW 8.0.5) date 2024-10-20 21:33:00*
%MOMM*%
%LPD*%
G01*
G04 APERTURE LIST*
G04 Aperture macros list*
%AMRoundRect*
0 Rectangle with rounded corners*
0 $1 Rounding radius*
0 $2 $3 $4 $5 $6 $7 $8 $9 X,Y pos of 4 corners*
0 Add a 4 corners polygon primitive as box body*
4,1,4,$2,$3,$4,$5,$6,$7,$8,$9,$2,$3,0*
0 Add four circle primitives for the rounded corners*
1,1,$1+$1,$2,$3*
1,1,$1+$1,$4,$5*
1,1,$1+$1,$6,$7*
1,1,$1+$1,$8,$9*
0 Add four rect primitives between the rounded corners*
20,1,$1+$1,$2,$3,$4,$5,0*
20,1,$1+$1,$4,$5,$6,$7,0*
20,1,$1+$1,$6,$7,$8,$9,0*
20,1,$1+$1,$8,$9,$2,$3,0*%
G04 Aperture macros list end*
%ADD10RoundRect,0.100000X0.650000X0.100000X-0.650000X0.100000X-0.650000X-0.100000X0.650000X-0.100000X0*%
%ADD11RoundRect,0.250000X-0.350000X-0.450000X0.350000X-0.450000X0.350000X0.450000X-0.350000X0.450000X0*%
%ADD12RoundRect,0.250000X-0.412500X-0.650000X0.412500X-0.650000X0.412500X0.650000X-0.412500X0.650000X0*%
%ADD13RoundRect,0.150000X-0.150000X0.512500X-0.150000X-0.512500X0.150000X-0.512500X0.150000X0.512500X0*%
%ADD14RoundRect,0.250000X0.350000X0.450000X-0.350000X0.450000X-0.350000X-0.450000X0.350000X-0.450000X0*%
%ADD15RoundRect,0.250000X0.650000X-0.350000X0.650000X0.350000X-0.650000X0.350000X-0.650000X-0.350000X0*%
%ADD16RoundRect,0.150000X0.625000X-0.150000X0.625000X0.150000X-0.625000X0.150000X-0.625000X-0.150000X0*%
%ADD17RoundRect,0.125000X0.125000X0.137500X-0.125000X0.137500X-0.125000X-0.137500X0.125000X-0.137500X0*%
%ADD18RoundRect,0.250000X-0.325000X-0.450000X0.325000X-0.450000X0.325000X0.450000X-0.325000X0.450000X0*%
%ADD19RoundRect,0.250000X-0.337500X-0.475000X0.337500X-0.475000X0.337500X0.475000X-0.337500X0.475000X0*%
%ADD20R,0.640000X0.700000*%
%ADD21R,0.500000X0.700000*%
%ADD22RoundRect,0.225000X0.225000X0.375000X-0.225000X0.375000X-0.225000X-0.375000X0.225000X-0.375000X0*%
%ADD23RoundRect,0.150000X-0.625000X0.150000X-0.625000X-0.150000X0.625000X-0.150000X0.625000X0.150000X0*%
%ADD24RoundRect,0.250000X-0.650000X0.350000X-0.650000X-0.350000X0.650000X-0.350000X0.650000X0.350000X0*%
G04 APERTURE END LIST*
D10*
%TO.C,Q1*%
X223330000Y-94125000D03*
X223330000Y-93475000D03*
X223330000Y-92825000D03*
X220670000Y-92825000D03*
X220670000Y-93475000D03*
X220670000Y-94125000D03*
%TD*%
D11*
%TO.C,R1*%
X228500000Y-96475000D03*
X226500000Y-96475000D03*
%TD*%
D12*
%TO.C,C1*%
X223562500Y-96475000D03*
X220437500Y-96475000D03*
%TD*%
D13*
%TO.C,U2*%
X233450000Y-101475000D03*
X231550000Y-101475000D03*
X231550000Y-99200000D03*
X232500000Y-99200000D03*
X233450000Y-99200000D03*
%TD*%
D14*
%TO.C,R3*%
X231500000Y-104475000D03*
X233500000Y-104475000D03*
%TD*%
D15*
%TO.C,J3*%
X240500000Y-94200000D03*
X240500000Y-99800000D03*
D16*
X236625000Y-95500000D03*
X236625000Y-96500000D03*
X236625000Y-97500000D03*
X236625000Y-98500000D03*
%TD*%
D12*
%TO.C,C2*%
X234062500Y-93475000D03*
X230937500Y-93475000D03*
%TD*%
D17*
%TO.C,U1*%
X228700000Y-99287500D03*
X227900000Y-99287500D03*
X227100000Y-99287500D03*
X226300000Y-99287500D03*
X226300000Y-101662500D03*
X227100000Y-101662500D03*
X227900000Y-101662500D03*
X228700000Y-101662500D03*
%TD*%
D18*
%TO.C,D2*%
X228525000Y-104475000D03*
X226475000Y-104475000D03*
%TD*%
D19*
%TO.C,C3*%
X223037500Y-104475000D03*
X220962500Y-104475000D03*
%TD*%
D14*
%TO.C,R2*%
X226500000Y-93475000D03*
X228500000Y-93475000D03*
%TD*%
D20*
%TO.C,RN1*%
X223370000Y-101675000D03*
D21*
X222500000Y-101675000D03*
X221700000Y-101675000D03*
D20*
X220830000Y-101675000D03*
X220830000Y-100275000D03*
D21*
X221700000Y-100275000D03*
X222500000Y-100275000D03*
D20*
X223370000Y-100275000D03*
%TD*%
D22*
%TO.C,D1*%
X230850000Y-96475000D03*
X234150000Y-96475000D03*
%TD*%
D23*
%TO.C,J2*%
X217437500Y-95500000D03*
X217437500Y-96500000D03*
X217437500Y-97500000D03*
X217437500Y-98500000D03*
D24*
X213562500Y-94200000D03*
X213562500Y-99800000D03*
%TD*%
M02*
