%TF.GenerationSoftware,KiCad,Pcbnew,8.0.5*%
%TF.CreationDate,2024-10-20T21:33:04-07:00*%
%TF.ProjectId,bme688-ezzat-suhaime,626d6536-3838-42d6-957a-7a61742d7375,rev?*%
%TF.SameCoordinates,Original*%
%TF.FileFunction,Drillmap*%
%TF.FilePolarity,Positive*%
%FSLAX45Y45*%
G04 Gerber Fmt 4.5, Leading zero omitted, Abs format (unit mm)*
G04 Created by KiCad (PCBNEW 8.0.5) date 2024-10-20 21:33:04*
%MOMM*%
%LPD*%
G01*
G04 APERTURE LIST*
%ADD10C,0.100000*%
%ADD11C,0.200000*%
%ADD12C,0.220000*%
G04 APERTURE END LIST*
D10*
X21200000Y-8700000D02*
X24200000Y-8700000D01*
X24200000Y-10700000D01*
X21200000Y-10700000D01*
X21200000Y-8700000D01*
D11*
D10*
X21336250Y-9255000D02*
X21376250Y-9295000D01*
X21376250Y-9255000D02*
X21336250Y-9295000D01*
X21336250Y-10105000D02*
X21376250Y-10145000D01*
X21376250Y-10105000D02*
X21336250Y-10145000D01*
X21555000Y-10105000D02*
X21595000Y-10145000D01*
X21595000Y-10105000D02*
X21555000Y-10145000D01*
X21630000Y-9155000D02*
X21670000Y-9195000D01*
X21670000Y-9155000D02*
X21630000Y-9195000D01*
X21880480Y-9305000D02*
X21920480Y-9345000D01*
X21920480Y-9305000D02*
X21880480Y-9345000D01*
X21911730Y-9514760D02*
X21951730Y-9554760D01*
X21951730Y-9514760D02*
X21911730Y-9554760D01*
X21955000Y-10152500D02*
X21995000Y-10192500D01*
X21995000Y-10152500D02*
X21955000Y-10192500D01*
X21955000Y-10427500D02*
X21995000Y-10467500D01*
X21995000Y-10427500D02*
X21955000Y-10467500D01*
X21967500Y-9792500D02*
X22007500Y-9832500D01*
X22007500Y-9792500D02*
X21967500Y-9832500D01*
X22230000Y-9905000D02*
X22270000Y-9945000D01*
X22270000Y-9905000D02*
X22230000Y-9945000D01*
X22451434Y-9955000D02*
X22491434Y-9995000D01*
X22491434Y-9955000D02*
X22451434Y-9995000D01*
X22459520Y-9505000D02*
X22499520Y-9545000D01*
X22499520Y-9505000D02*
X22459520Y-9545000D01*
X22459520Y-9680000D02*
X22499520Y-9720000D01*
X22499520Y-9680000D02*
X22459520Y-9720000D01*
X22480000Y-10177500D02*
X22520000Y-10217500D01*
X22520000Y-10177500D02*
X22480000Y-10217500D01*
X22480000Y-10427500D02*
X22520000Y-10467500D01*
X22520000Y-10427500D02*
X22480000Y-10467500D01*
X22486114Y-9282500D02*
X22526114Y-9322500D01*
X22526114Y-9282500D02*
X22486114Y-9322500D01*
X22630000Y-9777500D02*
X22670000Y-9817500D01*
X22670000Y-9777500D02*
X22630000Y-9817500D01*
X22850000Y-9777500D02*
X22890000Y-9817500D01*
X22890000Y-9777500D02*
X22850000Y-9817500D01*
X22950000Y-9327500D02*
X22990000Y-9367500D01*
X22990000Y-9327500D02*
X22950000Y-9367500D01*
X23006010Y-10001490D02*
X23046010Y-10041490D01*
X23046010Y-10001490D02*
X23006010Y-10041490D01*
X23226967Y-9630533D02*
X23266967Y-9670533D01*
X23266967Y-9630533D02*
X23226967Y-9670533D01*
X23230000Y-10252500D02*
X23270000Y-10292500D01*
X23270000Y-10252500D02*
X23230000Y-10292500D01*
X23455000Y-9905000D02*
X23495000Y-9945000D01*
X23495000Y-9905000D02*
X23455000Y-9945000D01*
X23455000Y-10127500D02*
X23495000Y-10167500D01*
X23495000Y-10127500D02*
X23455000Y-10167500D01*
X23455000Y-10427500D02*
X23495000Y-10467500D01*
X23495000Y-10427500D02*
X23455000Y-10467500D01*
X23555000Y-9230000D02*
X23595000Y-9270000D01*
X23595000Y-9230000D02*
X23555000Y-9270000D01*
X24030000Y-9255000D02*
X24070000Y-9295000D01*
X24070000Y-9255000D02*
X24030000Y-9295000D01*
X24030000Y-10105000D02*
X24070000Y-10145000D01*
X24070000Y-10105000D02*
X24030000Y-10145000D01*
X21990000Y-8997500D02*
G75*
G02*
X21890000Y-8997500I-50000J0D01*
G01*
X21890000Y-8997500D02*
G75*
G02*
X21990000Y-8997500I50000J0D01*
G01*
X22244000Y-8997500D02*
G75*
G02*
X22144000Y-8997500I-50000J0D01*
G01*
X22144000Y-8997500D02*
G75*
G02*
X22244000Y-8997500I50000J0D01*
G01*
X22498000Y-8997500D02*
G75*
G02*
X22398000Y-8997500I-50000J0D01*
G01*
X22398000Y-8997500D02*
G75*
G02*
X22498000Y-8997500I50000J0D01*
G01*
X22752000Y-8997500D02*
G75*
G02*
X22652000Y-8997500I-50000J0D01*
G01*
X22652000Y-8997500D02*
G75*
G02*
X22752000Y-8997500I50000J0D01*
G01*
X23006000Y-8997500D02*
G75*
G02*
X22906000Y-8997500I-50000J0D01*
G01*
X22906000Y-8997500D02*
G75*
G02*
X23006000Y-8997500I50000J0D01*
G01*
X23260000Y-8997500D02*
G75*
G02*
X23160000Y-8997500I-50000J0D01*
G01*
X23160000Y-8997500D02*
G75*
G02*
X23260000Y-8997500I50000J0D01*
G01*
X23514000Y-8997500D02*
G75*
G02*
X23414000Y-8997500I-50000J0D01*
G01*
X23414000Y-8997500D02*
G75*
G02*
X23514000Y-8997500I50000J0D01*
G01*
D12*
X21450000Y-8840000D02*
X21450000Y-9060000D01*
X21340000Y-8950000D02*
X21560000Y-8950000D01*
X23950000Y-10340000D02*
X23950000Y-10560000D01*
X23840000Y-10450000D02*
X24060000Y-10450000D01*
D11*
X21455777Y-11016484D02*
X21455777Y-10816484D01*
X21455777Y-10816484D02*
X21503396Y-10816484D01*
X21503396Y-10816484D02*
X21531967Y-10826008D01*
X21531967Y-10826008D02*
X21551015Y-10845055D01*
X21551015Y-10845055D02*
X21560539Y-10864103D01*
X21560539Y-10864103D02*
X21570063Y-10902198D01*
X21570063Y-10902198D02*
X21570063Y-10930770D01*
X21570063Y-10930770D02*
X21560539Y-10968865D01*
X21560539Y-10968865D02*
X21551015Y-10987912D01*
X21551015Y-10987912D02*
X21531967Y-11006960D01*
X21531967Y-11006960D02*
X21503396Y-11016484D01*
X21503396Y-11016484D02*
X21455777Y-11016484D01*
X21655777Y-11016484D02*
X21655777Y-10883150D01*
X21655777Y-10921246D02*
X21665301Y-10902198D01*
X21665301Y-10902198D02*
X21674824Y-10892674D01*
X21674824Y-10892674D02*
X21693872Y-10883150D01*
X21693872Y-10883150D02*
X21712920Y-10883150D01*
X21779586Y-11016484D02*
X21779586Y-10883150D01*
X21779586Y-10816484D02*
X21770063Y-10826008D01*
X21770063Y-10826008D02*
X21779586Y-10835531D01*
X21779586Y-10835531D02*
X21789110Y-10826008D01*
X21789110Y-10826008D02*
X21779586Y-10816484D01*
X21779586Y-10816484D02*
X21779586Y-10835531D01*
X21903396Y-11016484D02*
X21884348Y-11006960D01*
X21884348Y-11006960D02*
X21874824Y-10987912D01*
X21874824Y-10987912D02*
X21874824Y-10816484D01*
X22008158Y-11016484D02*
X21989110Y-11006960D01*
X21989110Y-11006960D02*
X21979586Y-10987912D01*
X21979586Y-10987912D02*
X21979586Y-10816484D01*
X22236729Y-11016484D02*
X22236729Y-10816484D01*
X22236729Y-10816484D02*
X22303396Y-10959341D01*
X22303396Y-10959341D02*
X22370062Y-10816484D01*
X22370062Y-10816484D02*
X22370062Y-11016484D01*
X22551015Y-11016484D02*
X22551015Y-10911722D01*
X22551015Y-10911722D02*
X22541491Y-10892674D01*
X22541491Y-10892674D02*
X22522443Y-10883150D01*
X22522443Y-10883150D02*
X22484348Y-10883150D01*
X22484348Y-10883150D02*
X22465301Y-10892674D01*
X22551015Y-11006960D02*
X22531967Y-11016484D01*
X22531967Y-11016484D02*
X22484348Y-11016484D01*
X22484348Y-11016484D02*
X22465301Y-11006960D01*
X22465301Y-11006960D02*
X22455777Y-10987912D01*
X22455777Y-10987912D02*
X22455777Y-10968865D01*
X22455777Y-10968865D02*
X22465301Y-10949817D01*
X22465301Y-10949817D02*
X22484348Y-10940293D01*
X22484348Y-10940293D02*
X22531967Y-10940293D01*
X22531967Y-10940293D02*
X22551015Y-10930770D01*
X22646253Y-10883150D02*
X22646253Y-11083150D01*
X22646253Y-10892674D02*
X22665301Y-10883150D01*
X22665301Y-10883150D02*
X22703396Y-10883150D01*
X22703396Y-10883150D02*
X22722443Y-10892674D01*
X22722443Y-10892674D02*
X22731967Y-10902198D01*
X22731967Y-10902198D02*
X22741491Y-10921246D01*
X22741491Y-10921246D02*
X22741491Y-10978389D01*
X22741491Y-10978389D02*
X22731967Y-10997436D01*
X22731967Y-10997436D02*
X22722443Y-11006960D01*
X22722443Y-11006960D02*
X22703396Y-11016484D01*
X22703396Y-11016484D02*
X22665301Y-11016484D01*
X22665301Y-11016484D02*
X22646253Y-11006960D01*
X22827205Y-10997436D02*
X22836729Y-11006960D01*
X22836729Y-11006960D02*
X22827205Y-11016484D01*
X22827205Y-11016484D02*
X22817682Y-11006960D01*
X22817682Y-11006960D02*
X22827205Y-10997436D01*
X22827205Y-10997436D02*
X22827205Y-11016484D01*
X22827205Y-10892674D02*
X22836729Y-10902198D01*
X22836729Y-10902198D02*
X22827205Y-10911722D01*
X22827205Y-10911722D02*
X22817682Y-10902198D01*
X22817682Y-10902198D02*
X22827205Y-10892674D01*
X22827205Y-10892674D02*
X22827205Y-10911722D01*
D10*
X21155000Y-11325000D02*
X21195000Y-11365000D01*
X21195000Y-11325000D02*
X21155000Y-11365000D01*
D11*
X21493872Y-11236484D02*
X21512920Y-11236484D01*
X21512920Y-11236484D02*
X21531967Y-11246008D01*
X21531967Y-11246008D02*
X21541491Y-11255531D01*
X21541491Y-11255531D02*
X21551015Y-11274579D01*
X21551015Y-11274579D02*
X21560539Y-11312674D01*
X21560539Y-11312674D02*
X21560539Y-11360293D01*
X21560539Y-11360293D02*
X21551015Y-11398388D01*
X21551015Y-11398388D02*
X21541491Y-11417436D01*
X21541491Y-11417436D02*
X21531967Y-11426960D01*
X21531967Y-11426960D02*
X21512920Y-11436484D01*
X21512920Y-11436484D02*
X21493872Y-11436484D01*
X21493872Y-11436484D02*
X21474824Y-11426960D01*
X21474824Y-11426960D02*
X21465301Y-11417436D01*
X21465301Y-11417436D02*
X21455777Y-11398388D01*
X21455777Y-11398388D02*
X21446253Y-11360293D01*
X21446253Y-11360293D02*
X21446253Y-11312674D01*
X21446253Y-11312674D02*
X21455777Y-11274579D01*
X21455777Y-11274579D02*
X21465301Y-11255531D01*
X21465301Y-11255531D02*
X21474824Y-11246008D01*
X21474824Y-11246008D02*
X21493872Y-11236484D01*
X21646253Y-11417436D02*
X21655777Y-11426960D01*
X21655777Y-11426960D02*
X21646253Y-11436484D01*
X21646253Y-11436484D02*
X21636729Y-11426960D01*
X21636729Y-11426960D02*
X21646253Y-11417436D01*
X21646253Y-11417436D02*
X21646253Y-11436484D01*
X21827205Y-11303150D02*
X21827205Y-11436484D01*
X21779586Y-11226960D02*
X21731967Y-11369817D01*
X21731967Y-11369817D02*
X21855777Y-11369817D01*
X21970063Y-11236484D02*
X21989110Y-11236484D01*
X21989110Y-11236484D02*
X22008158Y-11246008D01*
X22008158Y-11246008D02*
X22017682Y-11255531D01*
X22017682Y-11255531D02*
X22027205Y-11274579D01*
X22027205Y-11274579D02*
X22036729Y-11312674D01*
X22036729Y-11312674D02*
X22036729Y-11360293D01*
X22036729Y-11360293D02*
X22027205Y-11398388D01*
X22027205Y-11398388D02*
X22017682Y-11417436D01*
X22017682Y-11417436D02*
X22008158Y-11426960D01*
X22008158Y-11426960D02*
X21989110Y-11436484D01*
X21989110Y-11436484D02*
X21970063Y-11436484D01*
X21970063Y-11436484D02*
X21951015Y-11426960D01*
X21951015Y-11426960D02*
X21941491Y-11417436D01*
X21941491Y-11417436D02*
X21931967Y-11398388D01*
X21931967Y-11398388D02*
X21922444Y-11360293D01*
X21922444Y-11360293D02*
X21922444Y-11312674D01*
X21922444Y-11312674D02*
X21931967Y-11274579D01*
X21931967Y-11274579D02*
X21941491Y-11255531D01*
X21941491Y-11255531D02*
X21951015Y-11246008D01*
X21951015Y-11246008D02*
X21970063Y-11236484D01*
X22160539Y-11236484D02*
X22179586Y-11236484D01*
X22179586Y-11236484D02*
X22198634Y-11246008D01*
X22198634Y-11246008D02*
X22208158Y-11255531D01*
X22208158Y-11255531D02*
X22217682Y-11274579D01*
X22217682Y-11274579D02*
X22227205Y-11312674D01*
X22227205Y-11312674D02*
X22227205Y-11360293D01*
X22227205Y-11360293D02*
X22217682Y-11398388D01*
X22217682Y-11398388D02*
X22208158Y-11417436D01*
X22208158Y-11417436D02*
X22198634Y-11426960D01*
X22198634Y-11426960D02*
X22179586Y-11436484D01*
X22179586Y-11436484D02*
X22160539Y-11436484D01*
X22160539Y-11436484D02*
X22141491Y-11426960D01*
X22141491Y-11426960D02*
X22131967Y-11417436D01*
X22131967Y-11417436D02*
X22122444Y-11398388D01*
X22122444Y-11398388D02*
X22112920Y-11360293D01*
X22112920Y-11360293D02*
X22112920Y-11312674D01*
X22112920Y-11312674D02*
X22122444Y-11274579D01*
X22122444Y-11274579D02*
X22131967Y-11255531D01*
X22131967Y-11255531D02*
X22141491Y-11246008D01*
X22141491Y-11246008D02*
X22160539Y-11236484D01*
X22312920Y-11436484D02*
X22312920Y-11303150D01*
X22312920Y-11322198D02*
X22322444Y-11312674D01*
X22322444Y-11312674D02*
X22341491Y-11303150D01*
X22341491Y-11303150D02*
X22370063Y-11303150D01*
X22370063Y-11303150D02*
X22389110Y-11312674D01*
X22389110Y-11312674D02*
X22398634Y-11331722D01*
X22398634Y-11331722D02*
X22398634Y-11436484D01*
X22398634Y-11331722D02*
X22408158Y-11312674D01*
X22408158Y-11312674D02*
X22427205Y-11303150D01*
X22427205Y-11303150D02*
X22455777Y-11303150D01*
X22455777Y-11303150D02*
X22474824Y-11312674D01*
X22474824Y-11312674D02*
X22484348Y-11331722D01*
X22484348Y-11331722D02*
X22484348Y-11436484D01*
X22579586Y-11436484D02*
X22579586Y-11303150D01*
X22579586Y-11322198D02*
X22589110Y-11312674D01*
X22589110Y-11312674D02*
X22608158Y-11303150D01*
X22608158Y-11303150D02*
X22636729Y-11303150D01*
X22636729Y-11303150D02*
X22655777Y-11312674D01*
X22655777Y-11312674D02*
X22665301Y-11331722D01*
X22665301Y-11331722D02*
X22665301Y-11436484D01*
X22665301Y-11331722D02*
X22674824Y-11312674D01*
X22674824Y-11312674D02*
X22693872Y-11303150D01*
X22693872Y-11303150D02*
X22722443Y-11303150D01*
X22722443Y-11303150D02*
X22741491Y-11312674D01*
X22741491Y-11312674D02*
X22751015Y-11331722D01*
X22751015Y-11331722D02*
X22751015Y-11436484D01*
X23141491Y-11226960D02*
X22970063Y-11484103D01*
X23398634Y-11236484D02*
X23417682Y-11236484D01*
X23417682Y-11236484D02*
X23436729Y-11246008D01*
X23436729Y-11246008D02*
X23446253Y-11255531D01*
X23446253Y-11255531D02*
X23455777Y-11274579D01*
X23455777Y-11274579D02*
X23465301Y-11312674D01*
X23465301Y-11312674D02*
X23465301Y-11360293D01*
X23465301Y-11360293D02*
X23455777Y-11398388D01*
X23455777Y-11398388D02*
X23446253Y-11417436D01*
X23446253Y-11417436D02*
X23436729Y-11426960D01*
X23436729Y-11426960D02*
X23417682Y-11436484D01*
X23417682Y-11436484D02*
X23398634Y-11436484D01*
X23398634Y-11436484D02*
X23379586Y-11426960D01*
X23379586Y-11426960D02*
X23370063Y-11417436D01*
X23370063Y-11417436D02*
X23360539Y-11398388D01*
X23360539Y-11398388D02*
X23351015Y-11360293D01*
X23351015Y-11360293D02*
X23351015Y-11312674D01*
X23351015Y-11312674D02*
X23360539Y-11274579D01*
X23360539Y-11274579D02*
X23370063Y-11255531D01*
X23370063Y-11255531D02*
X23379586Y-11246008D01*
X23379586Y-11246008D02*
X23398634Y-11236484D01*
X23551015Y-11417436D02*
X23560539Y-11426960D01*
X23560539Y-11426960D02*
X23551015Y-11436484D01*
X23551015Y-11436484D02*
X23541491Y-11426960D01*
X23541491Y-11426960D02*
X23551015Y-11417436D01*
X23551015Y-11417436D02*
X23551015Y-11436484D01*
X23684348Y-11236484D02*
X23703396Y-11236484D01*
X23703396Y-11236484D02*
X23722444Y-11246008D01*
X23722444Y-11246008D02*
X23731967Y-11255531D01*
X23731967Y-11255531D02*
X23741491Y-11274579D01*
X23741491Y-11274579D02*
X23751015Y-11312674D01*
X23751015Y-11312674D02*
X23751015Y-11360293D01*
X23751015Y-11360293D02*
X23741491Y-11398388D01*
X23741491Y-11398388D02*
X23731967Y-11417436D01*
X23731967Y-11417436D02*
X23722444Y-11426960D01*
X23722444Y-11426960D02*
X23703396Y-11436484D01*
X23703396Y-11436484D02*
X23684348Y-11436484D01*
X23684348Y-11436484D02*
X23665301Y-11426960D01*
X23665301Y-11426960D02*
X23655777Y-11417436D01*
X23655777Y-11417436D02*
X23646253Y-11398388D01*
X23646253Y-11398388D02*
X23636729Y-11360293D01*
X23636729Y-11360293D02*
X23636729Y-11312674D01*
X23636729Y-11312674D02*
X23646253Y-11274579D01*
X23646253Y-11274579D02*
X23655777Y-11255531D01*
X23655777Y-11255531D02*
X23665301Y-11246008D01*
X23665301Y-11246008D02*
X23684348Y-11236484D01*
X23941491Y-11436484D02*
X23827206Y-11436484D01*
X23884348Y-11436484D02*
X23884348Y-11236484D01*
X23884348Y-11236484D02*
X23865301Y-11265055D01*
X23865301Y-11265055D02*
X23846253Y-11284103D01*
X23846253Y-11284103D02*
X23827206Y-11293627D01*
X24122444Y-11236484D02*
X24027206Y-11236484D01*
X24027206Y-11236484D02*
X24017682Y-11331722D01*
X24017682Y-11331722D02*
X24027206Y-11322198D01*
X24027206Y-11322198D02*
X24046253Y-11312674D01*
X24046253Y-11312674D02*
X24093872Y-11312674D01*
X24093872Y-11312674D02*
X24112920Y-11322198D01*
X24112920Y-11322198D02*
X24122444Y-11331722D01*
X24122444Y-11331722D02*
X24131967Y-11350769D01*
X24131967Y-11350769D02*
X24131967Y-11398388D01*
X24131967Y-11398388D02*
X24122444Y-11417436D01*
X24122444Y-11417436D02*
X24112920Y-11426960D01*
X24112920Y-11426960D02*
X24093872Y-11436484D01*
X24093872Y-11436484D02*
X24046253Y-11436484D01*
X24046253Y-11436484D02*
X24027206Y-11426960D01*
X24027206Y-11426960D02*
X24017682Y-11417436D01*
X24198634Y-11236484D02*
X24331967Y-11236484D01*
X24331967Y-11236484D02*
X24246253Y-11436484D01*
X24398634Y-11236484D02*
X24398634Y-11274579D01*
X24474825Y-11236484D02*
X24474825Y-11274579D01*
X24770063Y-11512674D02*
X24760539Y-11503150D01*
X24760539Y-11503150D02*
X24741491Y-11474579D01*
X24741491Y-11474579D02*
X24731968Y-11455531D01*
X24731968Y-11455531D02*
X24722444Y-11426960D01*
X24722444Y-11426960D02*
X24712920Y-11379341D01*
X24712920Y-11379341D02*
X24712920Y-11341246D01*
X24712920Y-11341246D02*
X24722444Y-11293627D01*
X24722444Y-11293627D02*
X24731968Y-11265055D01*
X24731968Y-11265055D02*
X24741491Y-11246008D01*
X24741491Y-11246008D02*
X24760539Y-11217436D01*
X24760539Y-11217436D02*
X24770063Y-11207912D01*
X24836729Y-11255531D02*
X24846253Y-11246008D01*
X24846253Y-11246008D02*
X24865301Y-11236484D01*
X24865301Y-11236484D02*
X24912920Y-11236484D01*
X24912920Y-11236484D02*
X24931968Y-11246008D01*
X24931968Y-11246008D02*
X24941491Y-11255531D01*
X24941491Y-11255531D02*
X24951015Y-11274579D01*
X24951015Y-11274579D02*
X24951015Y-11293627D01*
X24951015Y-11293627D02*
X24941491Y-11322198D01*
X24941491Y-11322198D02*
X24827206Y-11436484D01*
X24827206Y-11436484D02*
X24951015Y-11436484D01*
X25065301Y-11322198D02*
X25046253Y-11312674D01*
X25046253Y-11312674D02*
X25036729Y-11303150D01*
X25036729Y-11303150D02*
X25027206Y-11284103D01*
X25027206Y-11284103D02*
X25027206Y-11274579D01*
X25027206Y-11274579D02*
X25036729Y-11255531D01*
X25036729Y-11255531D02*
X25046253Y-11246008D01*
X25046253Y-11246008D02*
X25065301Y-11236484D01*
X25065301Y-11236484D02*
X25103396Y-11236484D01*
X25103396Y-11236484D02*
X25122444Y-11246008D01*
X25122444Y-11246008D02*
X25131968Y-11255531D01*
X25131968Y-11255531D02*
X25141491Y-11274579D01*
X25141491Y-11274579D02*
X25141491Y-11284103D01*
X25141491Y-11284103D02*
X25131968Y-11303150D01*
X25131968Y-11303150D02*
X25122444Y-11312674D01*
X25122444Y-11312674D02*
X25103396Y-11322198D01*
X25103396Y-11322198D02*
X25065301Y-11322198D01*
X25065301Y-11322198D02*
X25046253Y-11331722D01*
X25046253Y-11331722D02*
X25036729Y-11341246D01*
X25036729Y-11341246D02*
X25027206Y-11360293D01*
X25027206Y-11360293D02*
X25027206Y-11398388D01*
X25027206Y-11398388D02*
X25036729Y-11417436D01*
X25036729Y-11417436D02*
X25046253Y-11426960D01*
X25046253Y-11426960D02*
X25065301Y-11436484D01*
X25065301Y-11436484D02*
X25103396Y-11436484D01*
X25103396Y-11436484D02*
X25122444Y-11426960D01*
X25122444Y-11426960D02*
X25131968Y-11417436D01*
X25131968Y-11417436D02*
X25141491Y-11398388D01*
X25141491Y-11398388D02*
X25141491Y-11360293D01*
X25141491Y-11360293D02*
X25131968Y-11341246D01*
X25131968Y-11341246D02*
X25122444Y-11331722D01*
X25122444Y-11331722D02*
X25103396Y-11322198D01*
X25379587Y-11436484D02*
X25379587Y-11236484D01*
X25465301Y-11436484D02*
X25465301Y-11331722D01*
X25465301Y-11331722D02*
X25455777Y-11312674D01*
X25455777Y-11312674D02*
X25436730Y-11303150D01*
X25436730Y-11303150D02*
X25408158Y-11303150D01*
X25408158Y-11303150D02*
X25389110Y-11312674D01*
X25389110Y-11312674D02*
X25379587Y-11322198D01*
X25589110Y-11436484D02*
X25570063Y-11426960D01*
X25570063Y-11426960D02*
X25560539Y-11417436D01*
X25560539Y-11417436D02*
X25551015Y-11398388D01*
X25551015Y-11398388D02*
X25551015Y-11341246D01*
X25551015Y-11341246D02*
X25560539Y-11322198D01*
X25560539Y-11322198D02*
X25570063Y-11312674D01*
X25570063Y-11312674D02*
X25589110Y-11303150D01*
X25589110Y-11303150D02*
X25617682Y-11303150D01*
X25617682Y-11303150D02*
X25636730Y-11312674D01*
X25636730Y-11312674D02*
X25646253Y-11322198D01*
X25646253Y-11322198D02*
X25655777Y-11341246D01*
X25655777Y-11341246D02*
X25655777Y-11398388D01*
X25655777Y-11398388D02*
X25646253Y-11417436D01*
X25646253Y-11417436D02*
X25636730Y-11426960D01*
X25636730Y-11426960D02*
X25617682Y-11436484D01*
X25617682Y-11436484D02*
X25589110Y-11436484D01*
X25770063Y-11436484D02*
X25751015Y-11426960D01*
X25751015Y-11426960D02*
X25741491Y-11407912D01*
X25741491Y-11407912D02*
X25741491Y-11236484D01*
X25922444Y-11426960D02*
X25903396Y-11436484D01*
X25903396Y-11436484D02*
X25865301Y-11436484D01*
X25865301Y-11436484D02*
X25846253Y-11426960D01*
X25846253Y-11426960D02*
X25836730Y-11407912D01*
X25836730Y-11407912D02*
X25836730Y-11331722D01*
X25836730Y-11331722D02*
X25846253Y-11312674D01*
X25846253Y-11312674D02*
X25865301Y-11303150D01*
X25865301Y-11303150D02*
X25903396Y-11303150D01*
X25903396Y-11303150D02*
X25922444Y-11312674D01*
X25922444Y-11312674D02*
X25931968Y-11331722D01*
X25931968Y-11331722D02*
X25931968Y-11350769D01*
X25931968Y-11350769D02*
X25836730Y-11369817D01*
X26008158Y-11426960D02*
X26027206Y-11436484D01*
X26027206Y-11436484D02*
X26065301Y-11436484D01*
X26065301Y-11436484D02*
X26084349Y-11426960D01*
X26084349Y-11426960D02*
X26093872Y-11407912D01*
X26093872Y-11407912D02*
X26093872Y-11398388D01*
X26093872Y-11398388D02*
X26084349Y-11379341D01*
X26084349Y-11379341D02*
X26065301Y-11369817D01*
X26065301Y-11369817D02*
X26036730Y-11369817D01*
X26036730Y-11369817D02*
X26017682Y-11360293D01*
X26017682Y-11360293D02*
X26008158Y-11341246D01*
X26008158Y-11341246D02*
X26008158Y-11331722D01*
X26008158Y-11331722D02*
X26017682Y-11312674D01*
X26017682Y-11312674D02*
X26036730Y-11303150D01*
X26036730Y-11303150D02*
X26065301Y-11303150D01*
X26065301Y-11303150D02*
X26084349Y-11312674D01*
X26160539Y-11512674D02*
X26170063Y-11503150D01*
X26170063Y-11503150D02*
X26189111Y-11474579D01*
X26189111Y-11474579D02*
X26198634Y-11455531D01*
X26198634Y-11455531D02*
X26208158Y-11426960D01*
X26208158Y-11426960D02*
X26217682Y-11379341D01*
X26217682Y-11379341D02*
X26217682Y-11341246D01*
X26217682Y-11341246D02*
X26208158Y-11293627D01*
X26208158Y-11293627D02*
X26198634Y-11265055D01*
X26198634Y-11265055D02*
X26189111Y-11246008D01*
X26189111Y-11246008D02*
X26170063Y-11217436D01*
X26170063Y-11217436D02*
X26160539Y-11207912D01*
D10*
X21195000Y-11609000D02*
G75*
G02*
X21095000Y-11609000I-50000J0D01*
G01*
X21095000Y-11609000D02*
G75*
G02*
X21195000Y-11609000I50000J0D01*
G01*
D11*
X21560539Y-11700484D02*
X21446253Y-11700484D01*
X21503396Y-11700484D02*
X21503396Y-11500484D01*
X21503396Y-11500484D02*
X21484348Y-11529055D01*
X21484348Y-11529055D02*
X21465301Y-11548103D01*
X21465301Y-11548103D02*
X21446253Y-11557627D01*
X21646253Y-11681436D02*
X21655777Y-11690960D01*
X21655777Y-11690960D02*
X21646253Y-11700484D01*
X21646253Y-11700484D02*
X21636729Y-11690960D01*
X21636729Y-11690960D02*
X21646253Y-11681436D01*
X21646253Y-11681436D02*
X21646253Y-11700484D01*
X21779586Y-11500484D02*
X21798634Y-11500484D01*
X21798634Y-11500484D02*
X21817682Y-11510008D01*
X21817682Y-11510008D02*
X21827205Y-11519531D01*
X21827205Y-11519531D02*
X21836729Y-11538579D01*
X21836729Y-11538579D02*
X21846253Y-11576674D01*
X21846253Y-11576674D02*
X21846253Y-11624293D01*
X21846253Y-11624293D02*
X21836729Y-11662388D01*
X21836729Y-11662388D02*
X21827205Y-11681436D01*
X21827205Y-11681436D02*
X21817682Y-11690960D01*
X21817682Y-11690960D02*
X21798634Y-11700484D01*
X21798634Y-11700484D02*
X21779586Y-11700484D01*
X21779586Y-11700484D02*
X21760539Y-11690960D01*
X21760539Y-11690960D02*
X21751015Y-11681436D01*
X21751015Y-11681436D02*
X21741491Y-11662388D01*
X21741491Y-11662388D02*
X21731967Y-11624293D01*
X21731967Y-11624293D02*
X21731967Y-11576674D01*
X21731967Y-11576674D02*
X21741491Y-11538579D01*
X21741491Y-11538579D02*
X21751015Y-11519531D01*
X21751015Y-11519531D02*
X21760539Y-11510008D01*
X21760539Y-11510008D02*
X21779586Y-11500484D01*
X21970063Y-11500484D02*
X21989110Y-11500484D01*
X21989110Y-11500484D02*
X22008158Y-11510008D01*
X22008158Y-11510008D02*
X22017682Y-11519531D01*
X22017682Y-11519531D02*
X22027205Y-11538579D01*
X22027205Y-11538579D02*
X22036729Y-11576674D01*
X22036729Y-11576674D02*
X22036729Y-11624293D01*
X22036729Y-11624293D02*
X22027205Y-11662388D01*
X22027205Y-11662388D02*
X22017682Y-11681436D01*
X22017682Y-11681436D02*
X22008158Y-11690960D01*
X22008158Y-11690960D02*
X21989110Y-11700484D01*
X21989110Y-11700484D02*
X21970063Y-11700484D01*
X21970063Y-11700484D02*
X21951015Y-11690960D01*
X21951015Y-11690960D02*
X21941491Y-11681436D01*
X21941491Y-11681436D02*
X21931967Y-11662388D01*
X21931967Y-11662388D02*
X21922444Y-11624293D01*
X21922444Y-11624293D02*
X21922444Y-11576674D01*
X21922444Y-11576674D02*
X21931967Y-11538579D01*
X21931967Y-11538579D02*
X21941491Y-11519531D01*
X21941491Y-11519531D02*
X21951015Y-11510008D01*
X21951015Y-11510008D02*
X21970063Y-11500484D01*
X22160539Y-11500484D02*
X22179586Y-11500484D01*
X22179586Y-11500484D02*
X22198634Y-11510008D01*
X22198634Y-11510008D02*
X22208158Y-11519531D01*
X22208158Y-11519531D02*
X22217682Y-11538579D01*
X22217682Y-11538579D02*
X22227205Y-11576674D01*
X22227205Y-11576674D02*
X22227205Y-11624293D01*
X22227205Y-11624293D02*
X22217682Y-11662388D01*
X22217682Y-11662388D02*
X22208158Y-11681436D01*
X22208158Y-11681436D02*
X22198634Y-11690960D01*
X22198634Y-11690960D02*
X22179586Y-11700484D01*
X22179586Y-11700484D02*
X22160539Y-11700484D01*
X22160539Y-11700484D02*
X22141491Y-11690960D01*
X22141491Y-11690960D02*
X22131967Y-11681436D01*
X22131967Y-11681436D02*
X22122444Y-11662388D01*
X22122444Y-11662388D02*
X22112920Y-11624293D01*
X22112920Y-11624293D02*
X22112920Y-11576674D01*
X22112920Y-11576674D02*
X22122444Y-11538579D01*
X22122444Y-11538579D02*
X22131967Y-11519531D01*
X22131967Y-11519531D02*
X22141491Y-11510008D01*
X22141491Y-11510008D02*
X22160539Y-11500484D01*
X22312920Y-11700484D02*
X22312920Y-11567150D01*
X22312920Y-11586198D02*
X22322444Y-11576674D01*
X22322444Y-11576674D02*
X22341491Y-11567150D01*
X22341491Y-11567150D02*
X22370063Y-11567150D01*
X22370063Y-11567150D02*
X22389110Y-11576674D01*
X22389110Y-11576674D02*
X22398634Y-11595722D01*
X22398634Y-11595722D02*
X22398634Y-11700484D01*
X22398634Y-11595722D02*
X22408158Y-11576674D01*
X22408158Y-11576674D02*
X22427205Y-11567150D01*
X22427205Y-11567150D02*
X22455777Y-11567150D01*
X22455777Y-11567150D02*
X22474824Y-11576674D01*
X22474824Y-11576674D02*
X22484348Y-11595722D01*
X22484348Y-11595722D02*
X22484348Y-11700484D01*
X22579586Y-11700484D02*
X22579586Y-11567150D01*
X22579586Y-11586198D02*
X22589110Y-11576674D01*
X22589110Y-11576674D02*
X22608158Y-11567150D01*
X22608158Y-11567150D02*
X22636729Y-11567150D01*
X22636729Y-11567150D02*
X22655777Y-11576674D01*
X22655777Y-11576674D02*
X22665301Y-11595722D01*
X22665301Y-11595722D02*
X22665301Y-11700484D01*
X22665301Y-11595722D02*
X22674824Y-11576674D01*
X22674824Y-11576674D02*
X22693872Y-11567150D01*
X22693872Y-11567150D02*
X22722443Y-11567150D01*
X22722443Y-11567150D02*
X22741491Y-11576674D01*
X22741491Y-11576674D02*
X22751015Y-11595722D01*
X22751015Y-11595722D02*
X22751015Y-11700484D01*
X23141491Y-11490960D02*
X22970063Y-11748103D01*
X23398634Y-11500484D02*
X23417682Y-11500484D01*
X23417682Y-11500484D02*
X23436729Y-11510008D01*
X23436729Y-11510008D02*
X23446253Y-11519531D01*
X23446253Y-11519531D02*
X23455777Y-11538579D01*
X23455777Y-11538579D02*
X23465301Y-11576674D01*
X23465301Y-11576674D02*
X23465301Y-11624293D01*
X23465301Y-11624293D02*
X23455777Y-11662388D01*
X23455777Y-11662388D02*
X23446253Y-11681436D01*
X23446253Y-11681436D02*
X23436729Y-11690960D01*
X23436729Y-11690960D02*
X23417682Y-11700484D01*
X23417682Y-11700484D02*
X23398634Y-11700484D01*
X23398634Y-11700484D02*
X23379586Y-11690960D01*
X23379586Y-11690960D02*
X23370063Y-11681436D01*
X23370063Y-11681436D02*
X23360539Y-11662388D01*
X23360539Y-11662388D02*
X23351015Y-11624293D01*
X23351015Y-11624293D02*
X23351015Y-11576674D01*
X23351015Y-11576674D02*
X23360539Y-11538579D01*
X23360539Y-11538579D02*
X23370063Y-11519531D01*
X23370063Y-11519531D02*
X23379586Y-11510008D01*
X23379586Y-11510008D02*
X23398634Y-11500484D01*
X23551015Y-11681436D02*
X23560539Y-11690960D01*
X23560539Y-11690960D02*
X23551015Y-11700484D01*
X23551015Y-11700484D02*
X23541491Y-11690960D01*
X23541491Y-11690960D02*
X23551015Y-11681436D01*
X23551015Y-11681436D02*
X23551015Y-11700484D01*
X23684348Y-11500484D02*
X23703396Y-11500484D01*
X23703396Y-11500484D02*
X23722444Y-11510008D01*
X23722444Y-11510008D02*
X23731967Y-11519531D01*
X23731967Y-11519531D02*
X23741491Y-11538579D01*
X23741491Y-11538579D02*
X23751015Y-11576674D01*
X23751015Y-11576674D02*
X23751015Y-11624293D01*
X23751015Y-11624293D02*
X23741491Y-11662388D01*
X23741491Y-11662388D02*
X23731967Y-11681436D01*
X23731967Y-11681436D02*
X23722444Y-11690960D01*
X23722444Y-11690960D02*
X23703396Y-11700484D01*
X23703396Y-11700484D02*
X23684348Y-11700484D01*
X23684348Y-11700484D02*
X23665301Y-11690960D01*
X23665301Y-11690960D02*
X23655777Y-11681436D01*
X23655777Y-11681436D02*
X23646253Y-11662388D01*
X23646253Y-11662388D02*
X23636729Y-11624293D01*
X23636729Y-11624293D02*
X23636729Y-11576674D01*
X23636729Y-11576674D02*
X23646253Y-11538579D01*
X23646253Y-11538579D02*
X23655777Y-11519531D01*
X23655777Y-11519531D02*
X23665301Y-11510008D01*
X23665301Y-11510008D02*
X23684348Y-11500484D01*
X23817682Y-11500484D02*
X23941491Y-11500484D01*
X23941491Y-11500484D02*
X23874825Y-11576674D01*
X23874825Y-11576674D02*
X23903396Y-11576674D01*
X23903396Y-11576674D02*
X23922444Y-11586198D01*
X23922444Y-11586198D02*
X23931967Y-11595722D01*
X23931967Y-11595722D02*
X23941491Y-11614769D01*
X23941491Y-11614769D02*
X23941491Y-11662388D01*
X23941491Y-11662388D02*
X23931967Y-11681436D01*
X23931967Y-11681436D02*
X23922444Y-11690960D01*
X23922444Y-11690960D02*
X23903396Y-11700484D01*
X23903396Y-11700484D02*
X23846253Y-11700484D01*
X23846253Y-11700484D02*
X23827206Y-11690960D01*
X23827206Y-11690960D02*
X23817682Y-11681436D01*
X24036729Y-11700484D02*
X24074825Y-11700484D01*
X24074825Y-11700484D02*
X24093872Y-11690960D01*
X24093872Y-11690960D02*
X24103396Y-11681436D01*
X24103396Y-11681436D02*
X24122444Y-11652865D01*
X24122444Y-11652865D02*
X24131967Y-11614769D01*
X24131967Y-11614769D02*
X24131967Y-11538579D01*
X24131967Y-11538579D02*
X24122444Y-11519531D01*
X24122444Y-11519531D02*
X24112920Y-11510008D01*
X24112920Y-11510008D02*
X24093872Y-11500484D01*
X24093872Y-11500484D02*
X24055777Y-11500484D01*
X24055777Y-11500484D02*
X24036729Y-11510008D01*
X24036729Y-11510008D02*
X24027206Y-11519531D01*
X24027206Y-11519531D02*
X24017682Y-11538579D01*
X24017682Y-11538579D02*
X24017682Y-11586198D01*
X24017682Y-11586198D02*
X24027206Y-11605246D01*
X24027206Y-11605246D02*
X24036729Y-11614769D01*
X24036729Y-11614769D02*
X24055777Y-11624293D01*
X24055777Y-11624293D02*
X24093872Y-11624293D01*
X24093872Y-11624293D02*
X24112920Y-11614769D01*
X24112920Y-11614769D02*
X24122444Y-11605246D01*
X24122444Y-11605246D02*
X24131967Y-11586198D01*
X24303396Y-11567150D02*
X24303396Y-11700484D01*
X24255777Y-11490960D02*
X24208158Y-11633817D01*
X24208158Y-11633817D02*
X24331967Y-11633817D01*
X24398634Y-11500484D02*
X24398634Y-11538579D01*
X24474825Y-11500484D02*
X24474825Y-11538579D01*
X24770063Y-11776674D02*
X24760539Y-11767150D01*
X24760539Y-11767150D02*
X24741491Y-11738579D01*
X24741491Y-11738579D02*
X24731968Y-11719531D01*
X24731968Y-11719531D02*
X24722444Y-11690960D01*
X24722444Y-11690960D02*
X24712920Y-11643341D01*
X24712920Y-11643341D02*
X24712920Y-11605246D01*
X24712920Y-11605246D02*
X24722444Y-11557627D01*
X24722444Y-11557627D02*
X24731968Y-11529055D01*
X24731968Y-11529055D02*
X24741491Y-11510008D01*
X24741491Y-11510008D02*
X24760539Y-11481436D01*
X24760539Y-11481436D02*
X24770063Y-11471912D01*
X24827206Y-11500484D02*
X24960539Y-11500484D01*
X24960539Y-11500484D02*
X24874825Y-11700484D01*
X25189110Y-11700484D02*
X25189110Y-11500484D01*
X25274825Y-11700484D02*
X25274825Y-11595722D01*
X25274825Y-11595722D02*
X25265301Y-11576674D01*
X25265301Y-11576674D02*
X25246253Y-11567150D01*
X25246253Y-11567150D02*
X25217682Y-11567150D01*
X25217682Y-11567150D02*
X25198634Y-11576674D01*
X25198634Y-11576674D02*
X25189110Y-11586198D01*
X25398634Y-11700484D02*
X25379587Y-11690960D01*
X25379587Y-11690960D02*
X25370063Y-11681436D01*
X25370063Y-11681436D02*
X25360539Y-11662388D01*
X25360539Y-11662388D02*
X25360539Y-11605246D01*
X25360539Y-11605246D02*
X25370063Y-11586198D01*
X25370063Y-11586198D02*
X25379587Y-11576674D01*
X25379587Y-11576674D02*
X25398634Y-11567150D01*
X25398634Y-11567150D02*
X25427206Y-11567150D01*
X25427206Y-11567150D02*
X25446253Y-11576674D01*
X25446253Y-11576674D02*
X25455777Y-11586198D01*
X25455777Y-11586198D02*
X25465301Y-11605246D01*
X25465301Y-11605246D02*
X25465301Y-11662388D01*
X25465301Y-11662388D02*
X25455777Y-11681436D01*
X25455777Y-11681436D02*
X25446253Y-11690960D01*
X25446253Y-11690960D02*
X25427206Y-11700484D01*
X25427206Y-11700484D02*
X25398634Y-11700484D01*
X25579587Y-11700484D02*
X25560539Y-11690960D01*
X25560539Y-11690960D02*
X25551015Y-11671912D01*
X25551015Y-11671912D02*
X25551015Y-11500484D01*
X25731968Y-11690960D02*
X25712920Y-11700484D01*
X25712920Y-11700484D02*
X25674825Y-11700484D01*
X25674825Y-11700484D02*
X25655777Y-11690960D01*
X25655777Y-11690960D02*
X25646253Y-11671912D01*
X25646253Y-11671912D02*
X25646253Y-11595722D01*
X25646253Y-11595722D02*
X25655777Y-11576674D01*
X25655777Y-11576674D02*
X25674825Y-11567150D01*
X25674825Y-11567150D02*
X25712920Y-11567150D01*
X25712920Y-11567150D02*
X25731968Y-11576674D01*
X25731968Y-11576674D02*
X25741491Y-11595722D01*
X25741491Y-11595722D02*
X25741491Y-11614769D01*
X25741491Y-11614769D02*
X25646253Y-11633817D01*
X25817682Y-11690960D02*
X25836730Y-11700484D01*
X25836730Y-11700484D02*
X25874825Y-11700484D01*
X25874825Y-11700484D02*
X25893872Y-11690960D01*
X25893872Y-11690960D02*
X25903396Y-11671912D01*
X25903396Y-11671912D02*
X25903396Y-11662388D01*
X25903396Y-11662388D02*
X25893872Y-11643341D01*
X25893872Y-11643341D02*
X25874825Y-11633817D01*
X25874825Y-11633817D02*
X25846253Y-11633817D01*
X25846253Y-11633817D02*
X25827206Y-11624293D01*
X25827206Y-11624293D02*
X25817682Y-11605246D01*
X25817682Y-11605246D02*
X25817682Y-11595722D01*
X25817682Y-11595722D02*
X25827206Y-11576674D01*
X25827206Y-11576674D02*
X25846253Y-11567150D01*
X25846253Y-11567150D02*
X25874825Y-11567150D01*
X25874825Y-11567150D02*
X25893872Y-11576674D01*
X25970063Y-11776674D02*
X25979587Y-11767150D01*
X25979587Y-11767150D02*
X25998634Y-11738579D01*
X25998634Y-11738579D02*
X26008158Y-11719531D01*
X26008158Y-11719531D02*
X26017682Y-11690960D01*
X26017682Y-11690960D02*
X26027206Y-11643341D01*
X26027206Y-11643341D02*
X26027206Y-11605246D01*
X26027206Y-11605246D02*
X26017682Y-11557627D01*
X26017682Y-11557627D02*
X26008158Y-11529055D01*
X26008158Y-11529055D02*
X25998634Y-11510008D01*
X25998634Y-11510008D02*
X25979587Y-11481436D01*
X25979587Y-11481436D02*
X25970063Y-11471912D01*
X21095000Y-11773000D02*
X21095000Y-11973000D01*
X20995000Y-11873000D02*
X21195000Y-11873000D01*
X21446253Y-11783531D02*
X21455777Y-11774008D01*
X21455777Y-11774008D02*
X21474824Y-11764484D01*
X21474824Y-11764484D02*
X21522444Y-11764484D01*
X21522444Y-11764484D02*
X21541491Y-11774008D01*
X21541491Y-11774008D02*
X21551015Y-11783531D01*
X21551015Y-11783531D02*
X21560539Y-11802579D01*
X21560539Y-11802579D02*
X21560539Y-11821627D01*
X21560539Y-11821627D02*
X21551015Y-11850198D01*
X21551015Y-11850198D02*
X21436729Y-11964484D01*
X21436729Y-11964484D02*
X21560539Y-11964484D01*
X21646253Y-11945436D02*
X21655777Y-11954960D01*
X21655777Y-11954960D02*
X21646253Y-11964484D01*
X21646253Y-11964484D02*
X21636729Y-11954960D01*
X21636729Y-11954960D02*
X21646253Y-11945436D01*
X21646253Y-11945436D02*
X21646253Y-11964484D01*
X21731967Y-11783531D02*
X21741491Y-11774008D01*
X21741491Y-11774008D02*
X21760539Y-11764484D01*
X21760539Y-11764484D02*
X21808158Y-11764484D01*
X21808158Y-11764484D02*
X21827205Y-11774008D01*
X21827205Y-11774008D02*
X21836729Y-11783531D01*
X21836729Y-11783531D02*
X21846253Y-11802579D01*
X21846253Y-11802579D02*
X21846253Y-11821627D01*
X21846253Y-11821627D02*
X21836729Y-11850198D01*
X21836729Y-11850198D02*
X21722444Y-11964484D01*
X21722444Y-11964484D02*
X21846253Y-11964484D01*
X21970063Y-11764484D02*
X21989110Y-11764484D01*
X21989110Y-11764484D02*
X22008158Y-11774008D01*
X22008158Y-11774008D02*
X22017682Y-11783531D01*
X22017682Y-11783531D02*
X22027205Y-11802579D01*
X22027205Y-11802579D02*
X22036729Y-11840674D01*
X22036729Y-11840674D02*
X22036729Y-11888293D01*
X22036729Y-11888293D02*
X22027205Y-11926388D01*
X22027205Y-11926388D02*
X22017682Y-11945436D01*
X22017682Y-11945436D02*
X22008158Y-11954960D01*
X22008158Y-11954960D02*
X21989110Y-11964484D01*
X21989110Y-11964484D02*
X21970063Y-11964484D01*
X21970063Y-11964484D02*
X21951015Y-11954960D01*
X21951015Y-11954960D02*
X21941491Y-11945436D01*
X21941491Y-11945436D02*
X21931967Y-11926388D01*
X21931967Y-11926388D02*
X21922444Y-11888293D01*
X21922444Y-11888293D02*
X21922444Y-11840674D01*
X21922444Y-11840674D02*
X21931967Y-11802579D01*
X21931967Y-11802579D02*
X21941491Y-11783531D01*
X21941491Y-11783531D02*
X21951015Y-11774008D01*
X21951015Y-11774008D02*
X21970063Y-11764484D01*
X22160539Y-11764484D02*
X22179586Y-11764484D01*
X22179586Y-11764484D02*
X22198634Y-11774008D01*
X22198634Y-11774008D02*
X22208158Y-11783531D01*
X22208158Y-11783531D02*
X22217682Y-11802579D01*
X22217682Y-11802579D02*
X22227205Y-11840674D01*
X22227205Y-11840674D02*
X22227205Y-11888293D01*
X22227205Y-11888293D02*
X22217682Y-11926388D01*
X22217682Y-11926388D02*
X22208158Y-11945436D01*
X22208158Y-11945436D02*
X22198634Y-11954960D01*
X22198634Y-11954960D02*
X22179586Y-11964484D01*
X22179586Y-11964484D02*
X22160539Y-11964484D01*
X22160539Y-11964484D02*
X22141491Y-11954960D01*
X22141491Y-11954960D02*
X22131967Y-11945436D01*
X22131967Y-11945436D02*
X22122444Y-11926388D01*
X22122444Y-11926388D02*
X22112920Y-11888293D01*
X22112920Y-11888293D02*
X22112920Y-11840674D01*
X22112920Y-11840674D02*
X22122444Y-11802579D01*
X22122444Y-11802579D02*
X22131967Y-11783531D01*
X22131967Y-11783531D02*
X22141491Y-11774008D01*
X22141491Y-11774008D02*
X22160539Y-11764484D01*
X22312920Y-11964484D02*
X22312920Y-11831150D01*
X22312920Y-11850198D02*
X22322444Y-11840674D01*
X22322444Y-11840674D02*
X22341491Y-11831150D01*
X22341491Y-11831150D02*
X22370063Y-11831150D01*
X22370063Y-11831150D02*
X22389110Y-11840674D01*
X22389110Y-11840674D02*
X22398634Y-11859722D01*
X22398634Y-11859722D02*
X22398634Y-11964484D01*
X22398634Y-11859722D02*
X22408158Y-11840674D01*
X22408158Y-11840674D02*
X22427205Y-11831150D01*
X22427205Y-11831150D02*
X22455777Y-11831150D01*
X22455777Y-11831150D02*
X22474824Y-11840674D01*
X22474824Y-11840674D02*
X22484348Y-11859722D01*
X22484348Y-11859722D02*
X22484348Y-11964484D01*
X22579586Y-11964484D02*
X22579586Y-11831150D01*
X22579586Y-11850198D02*
X22589110Y-11840674D01*
X22589110Y-11840674D02*
X22608158Y-11831150D01*
X22608158Y-11831150D02*
X22636729Y-11831150D01*
X22636729Y-11831150D02*
X22655777Y-11840674D01*
X22655777Y-11840674D02*
X22665301Y-11859722D01*
X22665301Y-11859722D02*
X22665301Y-11964484D01*
X22665301Y-11859722D02*
X22674824Y-11840674D01*
X22674824Y-11840674D02*
X22693872Y-11831150D01*
X22693872Y-11831150D02*
X22722443Y-11831150D01*
X22722443Y-11831150D02*
X22741491Y-11840674D01*
X22741491Y-11840674D02*
X22751015Y-11859722D01*
X22751015Y-11859722D02*
X22751015Y-11964484D01*
X23141491Y-11754960D02*
X22970063Y-12012103D01*
X23398634Y-11764484D02*
X23417682Y-11764484D01*
X23417682Y-11764484D02*
X23436729Y-11774008D01*
X23436729Y-11774008D02*
X23446253Y-11783531D01*
X23446253Y-11783531D02*
X23455777Y-11802579D01*
X23455777Y-11802579D02*
X23465301Y-11840674D01*
X23465301Y-11840674D02*
X23465301Y-11888293D01*
X23465301Y-11888293D02*
X23455777Y-11926388D01*
X23455777Y-11926388D02*
X23446253Y-11945436D01*
X23446253Y-11945436D02*
X23436729Y-11954960D01*
X23436729Y-11954960D02*
X23417682Y-11964484D01*
X23417682Y-11964484D02*
X23398634Y-11964484D01*
X23398634Y-11964484D02*
X23379586Y-11954960D01*
X23379586Y-11954960D02*
X23370063Y-11945436D01*
X23370063Y-11945436D02*
X23360539Y-11926388D01*
X23360539Y-11926388D02*
X23351015Y-11888293D01*
X23351015Y-11888293D02*
X23351015Y-11840674D01*
X23351015Y-11840674D02*
X23360539Y-11802579D01*
X23360539Y-11802579D02*
X23370063Y-11783531D01*
X23370063Y-11783531D02*
X23379586Y-11774008D01*
X23379586Y-11774008D02*
X23398634Y-11764484D01*
X23551015Y-11945436D02*
X23560539Y-11954960D01*
X23560539Y-11954960D02*
X23551015Y-11964484D01*
X23551015Y-11964484D02*
X23541491Y-11954960D01*
X23541491Y-11954960D02*
X23551015Y-11945436D01*
X23551015Y-11945436D02*
X23551015Y-11964484D01*
X23684348Y-11764484D02*
X23703396Y-11764484D01*
X23703396Y-11764484D02*
X23722444Y-11774008D01*
X23722444Y-11774008D02*
X23731967Y-11783531D01*
X23731967Y-11783531D02*
X23741491Y-11802579D01*
X23741491Y-11802579D02*
X23751015Y-11840674D01*
X23751015Y-11840674D02*
X23751015Y-11888293D01*
X23751015Y-11888293D02*
X23741491Y-11926388D01*
X23741491Y-11926388D02*
X23731967Y-11945436D01*
X23731967Y-11945436D02*
X23722444Y-11954960D01*
X23722444Y-11954960D02*
X23703396Y-11964484D01*
X23703396Y-11964484D02*
X23684348Y-11964484D01*
X23684348Y-11964484D02*
X23665301Y-11954960D01*
X23665301Y-11954960D02*
X23655777Y-11945436D01*
X23655777Y-11945436D02*
X23646253Y-11926388D01*
X23646253Y-11926388D02*
X23636729Y-11888293D01*
X23636729Y-11888293D02*
X23636729Y-11840674D01*
X23636729Y-11840674D02*
X23646253Y-11802579D01*
X23646253Y-11802579D02*
X23655777Y-11783531D01*
X23655777Y-11783531D02*
X23665301Y-11774008D01*
X23665301Y-11774008D02*
X23684348Y-11764484D01*
X23865301Y-11850198D02*
X23846253Y-11840674D01*
X23846253Y-11840674D02*
X23836729Y-11831150D01*
X23836729Y-11831150D02*
X23827206Y-11812103D01*
X23827206Y-11812103D02*
X23827206Y-11802579D01*
X23827206Y-11802579D02*
X23836729Y-11783531D01*
X23836729Y-11783531D02*
X23846253Y-11774008D01*
X23846253Y-11774008D02*
X23865301Y-11764484D01*
X23865301Y-11764484D02*
X23903396Y-11764484D01*
X23903396Y-11764484D02*
X23922444Y-11774008D01*
X23922444Y-11774008D02*
X23931967Y-11783531D01*
X23931967Y-11783531D02*
X23941491Y-11802579D01*
X23941491Y-11802579D02*
X23941491Y-11812103D01*
X23941491Y-11812103D02*
X23931967Y-11831150D01*
X23931967Y-11831150D02*
X23922444Y-11840674D01*
X23922444Y-11840674D02*
X23903396Y-11850198D01*
X23903396Y-11850198D02*
X23865301Y-11850198D01*
X23865301Y-11850198D02*
X23846253Y-11859722D01*
X23846253Y-11859722D02*
X23836729Y-11869246D01*
X23836729Y-11869246D02*
X23827206Y-11888293D01*
X23827206Y-11888293D02*
X23827206Y-11926388D01*
X23827206Y-11926388D02*
X23836729Y-11945436D01*
X23836729Y-11945436D02*
X23846253Y-11954960D01*
X23846253Y-11954960D02*
X23865301Y-11964484D01*
X23865301Y-11964484D02*
X23903396Y-11964484D01*
X23903396Y-11964484D02*
X23922444Y-11954960D01*
X23922444Y-11954960D02*
X23931967Y-11945436D01*
X23931967Y-11945436D02*
X23941491Y-11926388D01*
X23941491Y-11926388D02*
X23941491Y-11888293D01*
X23941491Y-11888293D02*
X23931967Y-11869246D01*
X23931967Y-11869246D02*
X23922444Y-11859722D01*
X23922444Y-11859722D02*
X23903396Y-11850198D01*
X24112920Y-11764484D02*
X24074825Y-11764484D01*
X24074825Y-11764484D02*
X24055777Y-11774008D01*
X24055777Y-11774008D02*
X24046253Y-11783531D01*
X24046253Y-11783531D02*
X24027206Y-11812103D01*
X24027206Y-11812103D02*
X24017682Y-11850198D01*
X24017682Y-11850198D02*
X24017682Y-11926388D01*
X24017682Y-11926388D02*
X24027206Y-11945436D01*
X24027206Y-11945436D02*
X24036729Y-11954960D01*
X24036729Y-11954960D02*
X24055777Y-11964484D01*
X24055777Y-11964484D02*
X24093872Y-11964484D01*
X24093872Y-11964484D02*
X24112920Y-11954960D01*
X24112920Y-11954960D02*
X24122444Y-11945436D01*
X24122444Y-11945436D02*
X24131967Y-11926388D01*
X24131967Y-11926388D02*
X24131967Y-11878769D01*
X24131967Y-11878769D02*
X24122444Y-11859722D01*
X24122444Y-11859722D02*
X24112920Y-11850198D01*
X24112920Y-11850198D02*
X24093872Y-11840674D01*
X24093872Y-11840674D02*
X24055777Y-11840674D01*
X24055777Y-11840674D02*
X24036729Y-11850198D01*
X24036729Y-11850198D02*
X24027206Y-11859722D01*
X24027206Y-11859722D02*
X24017682Y-11878769D01*
X24303396Y-11764484D02*
X24265301Y-11764484D01*
X24265301Y-11764484D02*
X24246253Y-11774008D01*
X24246253Y-11774008D02*
X24236729Y-11783531D01*
X24236729Y-11783531D02*
X24217682Y-11812103D01*
X24217682Y-11812103D02*
X24208158Y-11850198D01*
X24208158Y-11850198D02*
X24208158Y-11926388D01*
X24208158Y-11926388D02*
X24217682Y-11945436D01*
X24217682Y-11945436D02*
X24227206Y-11954960D01*
X24227206Y-11954960D02*
X24246253Y-11964484D01*
X24246253Y-11964484D02*
X24284348Y-11964484D01*
X24284348Y-11964484D02*
X24303396Y-11954960D01*
X24303396Y-11954960D02*
X24312920Y-11945436D01*
X24312920Y-11945436D02*
X24322444Y-11926388D01*
X24322444Y-11926388D02*
X24322444Y-11878769D01*
X24322444Y-11878769D02*
X24312920Y-11859722D01*
X24312920Y-11859722D02*
X24303396Y-11850198D01*
X24303396Y-11850198D02*
X24284348Y-11840674D01*
X24284348Y-11840674D02*
X24246253Y-11840674D01*
X24246253Y-11840674D02*
X24227206Y-11850198D01*
X24227206Y-11850198D02*
X24217682Y-11859722D01*
X24217682Y-11859722D02*
X24208158Y-11878769D01*
X24398634Y-11764484D02*
X24398634Y-11802579D01*
X24474825Y-11764484D02*
X24474825Y-11802579D01*
X24770063Y-12040674D02*
X24760539Y-12031150D01*
X24760539Y-12031150D02*
X24741491Y-12002579D01*
X24741491Y-12002579D02*
X24731968Y-11983531D01*
X24731968Y-11983531D02*
X24722444Y-11954960D01*
X24722444Y-11954960D02*
X24712920Y-11907341D01*
X24712920Y-11907341D02*
X24712920Y-11869246D01*
X24712920Y-11869246D02*
X24722444Y-11821627D01*
X24722444Y-11821627D02*
X24731968Y-11793055D01*
X24731968Y-11793055D02*
X24741491Y-11774008D01*
X24741491Y-11774008D02*
X24760539Y-11745436D01*
X24760539Y-11745436D02*
X24770063Y-11735912D01*
X24836729Y-11783531D02*
X24846253Y-11774008D01*
X24846253Y-11774008D02*
X24865301Y-11764484D01*
X24865301Y-11764484D02*
X24912920Y-11764484D01*
X24912920Y-11764484D02*
X24931968Y-11774008D01*
X24931968Y-11774008D02*
X24941491Y-11783531D01*
X24941491Y-11783531D02*
X24951015Y-11802579D01*
X24951015Y-11802579D02*
X24951015Y-11821627D01*
X24951015Y-11821627D02*
X24941491Y-11850198D01*
X24941491Y-11850198D02*
X24827206Y-11964484D01*
X24827206Y-11964484D02*
X24951015Y-11964484D01*
X25189110Y-11964484D02*
X25189110Y-11764484D01*
X25274825Y-11964484D02*
X25274825Y-11859722D01*
X25274825Y-11859722D02*
X25265301Y-11840674D01*
X25265301Y-11840674D02*
X25246253Y-11831150D01*
X25246253Y-11831150D02*
X25217682Y-11831150D01*
X25217682Y-11831150D02*
X25198634Y-11840674D01*
X25198634Y-11840674D02*
X25189110Y-11850198D01*
X25398634Y-11964484D02*
X25379587Y-11954960D01*
X25379587Y-11954960D02*
X25370063Y-11945436D01*
X25370063Y-11945436D02*
X25360539Y-11926388D01*
X25360539Y-11926388D02*
X25360539Y-11869246D01*
X25360539Y-11869246D02*
X25370063Y-11850198D01*
X25370063Y-11850198D02*
X25379587Y-11840674D01*
X25379587Y-11840674D02*
X25398634Y-11831150D01*
X25398634Y-11831150D02*
X25427206Y-11831150D01*
X25427206Y-11831150D02*
X25446253Y-11840674D01*
X25446253Y-11840674D02*
X25455777Y-11850198D01*
X25455777Y-11850198D02*
X25465301Y-11869246D01*
X25465301Y-11869246D02*
X25465301Y-11926388D01*
X25465301Y-11926388D02*
X25455777Y-11945436D01*
X25455777Y-11945436D02*
X25446253Y-11954960D01*
X25446253Y-11954960D02*
X25427206Y-11964484D01*
X25427206Y-11964484D02*
X25398634Y-11964484D01*
X25579587Y-11964484D02*
X25560539Y-11954960D01*
X25560539Y-11954960D02*
X25551015Y-11935912D01*
X25551015Y-11935912D02*
X25551015Y-11764484D01*
X25731968Y-11954960D02*
X25712920Y-11964484D01*
X25712920Y-11964484D02*
X25674825Y-11964484D01*
X25674825Y-11964484D02*
X25655777Y-11954960D01*
X25655777Y-11954960D02*
X25646253Y-11935912D01*
X25646253Y-11935912D02*
X25646253Y-11859722D01*
X25646253Y-11859722D02*
X25655777Y-11840674D01*
X25655777Y-11840674D02*
X25674825Y-11831150D01*
X25674825Y-11831150D02*
X25712920Y-11831150D01*
X25712920Y-11831150D02*
X25731968Y-11840674D01*
X25731968Y-11840674D02*
X25741491Y-11859722D01*
X25741491Y-11859722D02*
X25741491Y-11878769D01*
X25741491Y-11878769D02*
X25646253Y-11897817D01*
X25817682Y-11954960D02*
X25836730Y-11964484D01*
X25836730Y-11964484D02*
X25874825Y-11964484D01*
X25874825Y-11964484D02*
X25893872Y-11954960D01*
X25893872Y-11954960D02*
X25903396Y-11935912D01*
X25903396Y-11935912D02*
X25903396Y-11926388D01*
X25903396Y-11926388D02*
X25893872Y-11907341D01*
X25893872Y-11907341D02*
X25874825Y-11897817D01*
X25874825Y-11897817D02*
X25846253Y-11897817D01*
X25846253Y-11897817D02*
X25827206Y-11888293D01*
X25827206Y-11888293D02*
X25817682Y-11869246D01*
X25817682Y-11869246D02*
X25817682Y-11859722D01*
X25817682Y-11859722D02*
X25827206Y-11840674D01*
X25827206Y-11840674D02*
X25846253Y-11831150D01*
X25846253Y-11831150D02*
X25874825Y-11831150D01*
X25874825Y-11831150D02*
X25893872Y-11840674D01*
X25970063Y-12040674D02*
X25979587Y-12031150D01*
X25979587Y-12031150D02*
X25998634Y-12002579D01*
X25998634Y-12002579D02*
X26008158Y-11983531D01*
X26008158Y-11983531D02*
X26017682Y-11954960D01*
X26017682Y-11954960D02*
X26027206Y-11907341D01*
X26027206Y-11907341D02*
X26027206Y-11869246D01*
X26027206Y-11869246D02*
X26017682Y-11821627D01*
X26017682Y-11821627D02*
X26008158Y-11793055D01*
X26008158Y-11793055D02*
X25998634Y-11774008D01*
X25998634Y-11774008D02*
X25979587Y-11745436D01*
X25979587Y-11745436D02*
X25970063Y-11735912D01*
M02*
