%TF.GenerationSoftware,KiCad,Pcbnew,8.0.5*%
%TF.CreationDate,2024-10-20T21:33:01-07:00*%
%TF.ProjectId,bme688-ezzat-suhaime,626d6536-3838-42d6-957a-7a61742d7375,rev?*%
%TF.SameCoordinates,Original*%
%TF.FileFunction,Legend,Bot*%
%TF.FilePolarity,Positive*%
%FSLAX46Y46*%
G04 Gerber Fmt 4.6, Leading zero omitted, Abs format (unit mm)*
G04 Created by KiCad (PCBNEW 8.0.5) date 2024-10-20 21:33:01*
%MOMM*%
%LPD*%
G01*
G04 APERTURE LIST*
%ADD10C,0.150000*%
%ADD11C,0.120000*%
G04 APERTURE END LIST*
D10*
X228333333Y-92404819D02*
X228333333Y-93119104D01*
X228333333Y-93119104D02*
X228380952Y-93261961D01*
X228380952Y-93261961D02*
X228476190Y-93357200D01*
X228476190Y-93357200D02*
X228619047Y-93404819D01*
X228619047Y-93404819D02*
X228714285Y-93404819D01*
X227857142Y-93404819D02*
X227857142Y-92404819D01*
X227857142Y-92404819D02*
X227476190Y-92404819D01*
X227476190Y-92404819D02*
X227380952Y-92452438D01*
X227380952Y-92452438D02*
X227333333Y-92500057D01*
X227333333Y-92500057D02*
X227285714Y-92595295D01*
X227285714Y-92595295D02*
X227285714Y-92738152D01*
X227285714Y-92738152D02*
X227333333Y-92833390D01*
X227333333Y-92833390D02*
X227380952Y-92881009D01*
X227380952Y-92881009D02*
X227476190Y-92928628D01*
X227476190Y-92928628D02*
X227857142Y-92928628D01*
X226333333Y-93404819D02*
X226904761Y-93404819D01*
X226619047Y-93404819D02*
X226619047Y-92404819D01*
X226619047Y-92404819D02*
X226714285Y-92547676D01*
X226714285Y-92547676D02*
X226809523Y-92642914D01*
X226809523Y-92642914D02*
X226904761Y-92690533D01*
D11*
%TO.C,JP1*%
X226100000Y-93750000D02*
X228900000Y-93750000D01*
X226100000Y-95750000D02*
X226100000Y-93750000D01*
X228900000Y-93750000D02*
X228900000Y-95750000D01*
X228900000Y-95750000D02*
X226100000Y-95750000D01*
%TD*%
M02*
