%TF.GenerationSoftware,KiCad,Pcbnew,8.0.5*%
%TF.CreationDate,2024-10-27T10:59:05-07:00*%
%TF.ProjectId,bme688-ezzat-suhaime,626d6536-3838-42d6-957a-7a61742d7375,rev?*%
%TF.SameCoordinates,Original*%
%TF.FileFunction,Copper,L4,Bot*%
%TF.FilePolarity,Positive*%
%FSLAX46Y46*%
G04 Gerber Fmt 4.6, Leading zero omitted, Abs format (unit mm)*
G04 Created by KiCad (PCBNEW 8.0.5) date 2024-10-27 10:59:05*
%MOMM*%
%LPD*%
G01*
G04 APERTURE LIST*
G04 Aperture macros list*
%AMFreePoly0*
4,1,6,1.000000,0.000000,0.500000,-0.750000,-0.500000,-0.750000,-0.500000,0.750000,0.500000,0.750000,1.000000,0.000000,1.000000,0.000000,$1*%
%AMFreePoly1*
4,1,6,0.500000,-0.750000,-0.650000,-0.750000,-0.150000,0.000000,-0.650000,0.750000,0.500000,0.750000,0.500000,-0.750000,0.500000,-0.750000,$1*%
G04 Aperture macros list end*
%TA.AperFunction,ComponentPad*%
%ADD10C,2.600000*%
%TD*%
%TA.AperFunction,ConnectorPad*%
%ADD11C,3.500000*%
%TD*%
%TA.AperFunction,ComponentPad*%
%ADD12R,1.700000X1.700000*%
%TD*%
%TA.AperFunction,ComponentPad*%
%ADD13O,1.700000X1.700000*%
%TD*%
%TA.AperFunction,SMDPad,CuDef*%
%ADD14FreePoly0,90.000000*%
%TD*%
%TA.AperFunction,SMDPad,CuDef*%
%ADD15FreePoly1,90.000000*%
%TD*%
%TA.AperFunction,ViaPad*%
%ADD16C,0.800000*%
%TD*%
%TA.AperFunction,Conductor*%
%ADD17C,0.500000*%
%TD*%
%TA.AperFunction,Conductor*%
%ADD18C,0.300000*%
%TD*%
%TA.AperFunction,Conductor*%
%ADD19C,0.304800*%
%TD*%
G04 APERTURE END LIST*
D10*
%TO.P,H1,1,1*%
%TO.N,unconnected-(H1-Pad1)_2*%
X214500000Y-89500000D03*
D11*
%TO.N,unconnected-(H1-Pad1)_1*%
X214500000Y-89500000D03*
%TD*%
D12*
%TO.P,J1,1,Pin_1*%
%TO.N,VCC*%
X219400000Y-89975000D03*
D13*
%TO.P,J1,2,Pin_2*%
%TO.N,+3.3V*%
X221940000Y-89975000D03*
%TO.P,J1,3,Pin_3*%
%TO.N,GND*%
X224480000Y-89975000D03*
%TO.P,J1,4,Pin_4*%
%TO.N,/SCK{slash}SCL*%
X227020000Y-89975000D03*
%TO.P,J1,5,Pin_5*%
%TO.N,/SDO{slash}ADR*%
X229560000Y-89975000D03*
%TO.P,J1,6,Pin_6*%
%TO.N,/SDI{slash}SDA*%
X232100000Y-89975000D03*
%TO.P,J1,7,Pin_7*%
%TO.N,/CS*%
X234640000Y-89975000D03*
%TD*%
D10*
%TO.P,H2,1,1*%
%TO.N,unconnected-(H2-Pad1)*%
X239500000Y-89500000D03*
D11*
%TO.N,unconnected-(H2-Pad1)_2*%
X239500000Y-89500000D03*
%TD*%
D14*
%TO.P,JP1,1,A*%
%TO.N,/SDO{slash}ADR*%
X235750000Y-95450000D03*
D15*
%TO.P,JP1,2,B*%
%TO.N,GND*%
X235750000Y-94000000D03*
%TD*%
D16*
%TO.N,GND*%
X235750000Y-92500000D03*
X240500000Y-92750000D03*
X213562500Y-92750000D03*
X232500000Y-102725000D03*
X213562500Y-101250000D03*
X226500000Y-97975000D03*
X240500000Y-101250000D03*
X224795200Y-96500000D03*
X230260100Y-100214900D03*
X225000000Y-104475000D03*
%TO.N,VCC*%
X225000000Y-101975000D03*
X234750000Y-99250000D03*
X219875000Y-98125000D03*
%TO.N,+3.3V*%
X219750000Y-104475000D03*
X219004800Y-93250000D03*
X234750000Y-101475000D03*
X229700000Y-93475000D03*
X224795200Y-95250000D03*
X219750000Y-101725000D03*
X234750000Y-104475000D03*
X228700000Y-97975000D03*
%TO.N,/SDI{slash}SDA*%
X222500000Y-99250000D03*
X232469669Y-96505331D03*
%TO.N,/SCK{slash}SCL*%
X224714341Y-99750000D03*
X219317300Y-95347600D03*
%TO.N,/SDO{slash}ADR*%
X225061139Y-93025000D03*
%TD*%
D17*
%TO.N,GND*%
X235750000Y-92500000D02*
X235750000Y-93995097D01*
%TO.N,VCC*%
X219875000Y-98125000D02*
X223750000Y-102000000D01*
X232000000Y-102000000D02*
X234750000Y-99250000D01*
X219875000Y-98125000D02*
X218154800Y-96404800D01*
X223750000Y-102000000D02*
X232000000Y-102000000D01*
X218154800Y-96404800D02*
X218154800Y-91220200D01*
X219782935Y-98217065D02*
X219782935Y-98029172D01*
X218154800Y-91220200D02*
X219400000Y-89975000D01*
X219782935Y-98029172D02*
X219782935Y-98032935D01*
X219782935Y-98032935D02*
X219875000Y-98125000D01*
D18*
%TO.N,/SDI{slash}SDA*%
X232244669Y-96505331D02*
X232469669Y-96505331D01*
X228250000Y-100500000D02*
X232244669Y-96505331D01*
X223750000Y-100500000D02*
X228250000Y-100500000D01*
X222500000Y-99250000D02*
X223750000Y-100500000D01*
D19*
%TO.N,/SCK{slash}SCL*%
X221652400Y-95347600D02*
X226750000Y-90250000D01*
D18*
X224714341Y-98464341D02*
X221597600Y-95347600D01*
X221597600Y-95347600D02*
X220500000Y-95347600D01*
X224714341Y-99750000D02*
X224714341Y-98464341D01*
D19*
X220500000Y-95347600D02*
X221652400Y-95347600D01*
X220500000Y-95347600D02*
X219317300Y-95347600D01*
D18*
%TO.N,/SDO{slash}ADR*%
X229560000Y-89975000D02*
X235035000Y-95450000D01*
X225061139Y-93025000D02*
X226510000Y-93025000D01*
X226510000Y-93025000D02*
X229560000Y-89975000D01*
X235035000Y-95450000D02*
X235750000Y-95450000D01*
%TD*%
M02*
