M48
; DRILL file {KiCad 8.0.5} date 2024-10-20T21:33:03-0700
; FORMAT={-:-/ absolute / inch / decimal}
; #@! TF.CreationDate,2024-10-20T21:33:03-07:00
; #@! TF.GenerationSoftware,Kicad,Pcbnew,8.0.5
; #@! TF.FileFunction,Plated,1,4,PTH
FMAT,2
INCH
; #@! TA.AperFunction,Plated,PTH,ViaDrill
T1C0.0157
; #@! TA.AperFunction,Plated,PTH,ComponentDrill
T2C0.0394
; #@! TA.AperFunction,Plated,PTH,ComponentDrill
T3C0.0866
%
G90
G05
T1
X8.408Y-3.6516
X8.408Y-3.9862
X8.4941Y-3.9862
X8.5236Y-3.6122
X8.6222Y-3.6713
X8.6345Y-3.7538
X8.6516Y-4.0049
X8.6516Y-4.1132
X8.6565Y-3.8632
X8.7598Y-3.9075
X8.847Y-3.9272
X8.8502Y-3.75
X8.8502Y-3.8189
X8.8583Y-4.0148
X8.8583Y-4.1132
X8.8607Y-3.6624
X8.9173Y-3.8573
X9.0039Y-3.8573
X9.0433Y-3.6801
X9.0654Y-3.9455
X9.1523Y-3.7994
X9.1535Y-4.0443
X9.2421Y-3.9075
X9.2421Y-3.9951
X9.2421Y-4.1132
X9.2815Y-3.6417
X9.4685Y-3.6516
X9.4685Y-3.9862
T2
X8.6378Y-3.5423
X8.7378Y-3.5423
X8.8378Y-3.5423
X8.9378Y-3.5423
X9.0378Y-3.5423
X9.1378Y-3.5423
X9.2378Y-3.5423
T3
X8.4449Y-3.5236
X9.4291Y-4.1142
M30
