%TF.GenerationSoftware,KiCad,Pcbnew,8.0.5*%
%TF.CreationDate,2024-10-20T21:33:01-07:00*%
%TF.ProjectId,bme688-ezzat-suhaime,626d6536-3838-42d6-957a-7a61742d7375,rev?*%
%TF.SameCoordinates,Original*%
%TF.FileFunction,Legend,Top*%
%TF.FilePolarity,Positive*%
%FSLAX46Y46*%
G04 Gerber Fmt 4.6, Leading zero omitted, Abs format (unit mm)*
G04 Created by KiCad (PCBNEW 8.0.5) date 2024-10-20 21:33:01*
%MOMM*%
%LPD*%
G01*
G04 APERTURE LIST*
%ADD10C,0.125000*%
%ADD11C,0.120000*%
G04 APERTURE END LIST*
D10*
X218379855Y-87345595D02*
X218546521Y-88145595D01*
X218546521Y-88145595D02*
X218713188Y-87345595D01*
X219165568Y-88069404D02*
X219141759Y-88107500D01*
X219141759Y-88107500D02*
X219070330Y-88145595D01*
X219070330Y-88145595D02*
X219022711Y-88145595D01*
X219022711Y-88145595D02*
X218951283Y-88107500D01*
X218951283Y-88107500D02*
X218903664Y-88031309D01*
X218903664Y-88031309D02*
X218879854Y-87955119D01*
X218879854Y-87955119D02*
X218856045Y-87802738D01*
X218856045Y-87802738D02*
X218856045Y-87688452D01*
X218856045Y-87688452D02*
X218879854Y-87536071D01*
X218879854Y-87536071D02*
X218903664Y-87459880D01*
X218903664Y-87459880D02*
X218951283Y-87383690D01*
X218951283Y-87383690D02*
X219022711Y-87345595D01*
X219022711Y-87345595D02*
X219070330Y-87345595D01*
X219070330Y-87345595D02*
X219141759Y-87383690D01*
X219141759Y-87383690D02*
X219165568Y-87421785D01*
X219665568Y-88069404D02*
X219641759Y-88107500D01*
X219641759Y-88107500D02*
X219570330Y-88145595D01*
X219570330Y-88145595D02*
X219522711Y-88145595D01*
X219522711Y-88145595D02*
X219451283Y-88107500D01*
X219451283Y-88107500D02*
X219403664Y-88031309D01*
X219403664Y-88031309D02*
X219379854Y-87955119D01*
X219379854Y-87955119D02*
X219356045Y-87802738D01*
X219356045Y-87802738D02*
X219356045Y-87688452D01*
X219356045Y-87688452D02*
X219379854Y-87536071D01*
X219379854Y-87536071D02*
X219403664Y-87459880D01*
X219403664Y-87459880D02*
X219451283Y-87383690D01*
X219451283Y-87383690D02*
X219522711Y-87345595D01*
X219522711Y-87345595D02*
X219570330Y-87345595D01*
X219570330Y-87345595D02*
X219641759Y-87383690D01*
X219641759Y-87383690D02*
X219665568Y-87421785D01*
X221403664Y-87345595D02*
X221713188Y-87345595D01*
X221713188Y-87345595D02*
X221546521Y-87650357D01*
X221546521Y-87650357D02*
X221617950Y-87650357D01*
X221617950Y-87650357D02*
X221665569Y-87688452D01*
X221665569Y-87688452D02*
X221689378Y-87726547D01*
X221689378Y-87726547D02*
X221713188Y-87802738D01*
X221713188Y-87802738D02*
X221713188Y-87993214D01*
X221713188Y-87993214D02*
X221689378Y-88069404D01*
X221689378Y-88069404D02*
X221665569Y-88107500D01*
X221665569Y-88107500D02*
X221617950Y-88145595D01*
X221617950Y-88145595D02*
X221475093Y-88145595D01*
X221475093Y-88145595D02*
X221427474Y-88107500D01*
X221427474Y-88107500D02*
X221403664Y-88069404D01*
X221856045Y-87345595D02*
X222022711Y-88145595D01*
X222022711Y-88145595D02*
X222189378Y-87345595D01*
X222308425Y-87345595D02*
X222617949Y-87345595D01*
X222617949Y-87345595D02*
X222451282Y-87650357D01*
X222451282Y-87650357D02*
X222522711Y-87650357D01*
X222522711Y-87650357D02*
X222570330Y-87688452D01*
X222570330Y-87688452D02*
X222594139Y-87726547D01*
X222594139Y-87726547D02*
X222617949Y-87802738D01*
X222617949Y-87802738D02*
X222617949Y-87993214D01*
X222617949Y-87993214D02*
X222594139Y-88069404D01*
X222594139Y-88069404D02*
X222570330Y-88107500D01*
X222570330Y-88107500D02*
X222522711Y-88145595D01*
X222522711Y-88145595D02*
X222379854Y-88145595D01*
X222379854Y-88145595D02*
X222332235Y-88107500D01*
X222332235Y-88107500D02*
X222308425Y-88069404D01*
X224213188Y-87383690D02*
X224165569Y-87345595D01*
X224165569Y-87345595D02*
X224094140Y-87345595D01*
X224094140Y-87345595D02*
X224022712Y-87383690D01*
X224022712Y-87383690D02*
X223975093Y-87459880D01*
X223975093Y-87459880D02*
X223951283Y-87536071D01*
X223951283Y-87536071D02*
X223927474Y-87688452D01*
X223927474Y-87688452D02*
X223927474Y-87802738D01*
X223927474Y-87802738D02*
X223951283Y-87955119D01*
X223951283Y-87955119D02*
X223975093Y-88031309D01*
X223975093Y-88031309D02*
X224022712Y-88107500D01*
X224022712Y-88107500D02*
X224094140Y-88145595D01*
X224094140Y-88145595D02*
X224141759Y-88145595D01*
X224141759Y-88145595D02*
X224213188Y-88107500D01*
X224213188Y-88107500D02*
X224236997Y-88069404D01*
X224236997Y-88069404D02*
X224236997Y-87802738D01*
X224236997Y-87802738D02*
X224141759Y-87802738D01*
X224451283Y-88145595D02*
X224451283Y-87345595D01*
X224451283Y-87345595D02*
X224736997Y-88145595D01*
X224736997Y-88145595D02*
X224736997Y-87345595D01*
X224975093Y-88145595D02*
X224975093Y-87345595D01*
X224975093Y-87345595D02*
X225094141Y-87345595D01*
X225094141Y-87345595D02*
X225165569Y-87383690D01*
X225165569Y-87383690D02*
X225213188Y-87459880D01*
X225213188Y-87459880D02*
X225236998Y-87536071D01*
X225236998Y-87536071D02*
X225260807Y-87688452D01*
X225260807Y-87688452D02*
X225260807Y-87802738D01*
X225260807Y-87802738D02*
X225236998Y-87955119D01*
X225236998Y-87955119D02*
X225213188Y-88031309D01*
X225213188Y-88031309D02*
X225165569Y-88107500D01*
X225165569Y-88107500D02*
X225094141Y-88145595D01*
X225094141Y-88145595D02*
X224975093Y-88145595D01*
X226427474Y-88107500D02*
X226498902Y-88145595D01*
X226498902Y-88145595D02*
X226617950Y-88145595D01*
X226617950Y-88145595D02*
X226665569Y-88107500D01*
X226665569Y-88107500D02*
X226689378Y-88069404D01*
X226689378Y-88069404D02*
X226713188Y-87993214D01*
X226713188Y-87993214D02*
X226713188Y-87917023D01*
X226713188Y-87917023D02*
X226689378Y-87840833D01*
X226689378Y-87840833D02*
X226665569Y-87802738D01*
X226665569Y-87802738D02*
X226617950Y-87764642D01*
X226617950Y-87764642D02*
X226522712Y-87726547D01*
X226522712Y-87726547D02*
X226475093Y-87688452D01*
X226475093Y-87688452D02*
X226451283Y-87650357D01*
X226451283Y-87650357D02*
X226427474Y-87574166D01*
X226427474Y-87574166D02*
X226427474Y-87497976D01*
X226427474Y-87497976D02*
X226451283Y-87421785D01*
X226451283Y-87421785D02*
X226475093Y-87383690D01*
X226475093Y-87383690D02*
X226522712Y-87345595D01*
X226522712Y-87345595D02*
X226641759Y-87345595D01*
X226641759Y-87345595D02*
X226713188Y-87383690D01*
X227213187Y-88069404D02*
X227189378Y-88107500D01*
X227189378Y-88107500D02*
X227117949Y-88145595D01*
X227117949Y-88145595D02*
X227070330Y-88145595D01*
X227070330Y-88145595D02*
X226998902Y-88107500D01*
X226998902Y-88107500D02*
X226951283Y-88031309D01*
X226951283Y-88031309D02*
X226927473Y-87955119D01*
X226927473Y-87955119D02*
X226903664Y-87802738D01*
X226903664Y-87802738D02*
X226903664Y-87688452D01*
X226903664Y-87688452D02*
X226927473Y-87536071D01*
X226927473Y-87536071D02*
X226951283Y-87459880D01*
X226951283Y-87459880D02*
X226998902Y-87383690D01*
X226998902Y-87383690D02*
X227070330Y-87345595D01*
X227070330Y-87345595D02*
X227117949Y-87345595D01*
X227117949Y-87345595D02*
X227189378Y-87383690D01*
X227189378Y-87383690D02*
X227213187Y-87421785D01*
X227427473Y-88145595D02*
X227427473Y-87345595D01*
X227713187Y-88145595D02*
X227498902Y-87688452D01*
X227713187Y-87345595D02*
X227427473Y-87802738D01*
X228927474Y-88107500D02*
X228998902Y-88145595D01*
X228998902Y-88145595D02*
X229117950Y-88145595D01*
X229117950Y-88145595D02*
X229165569Y-88107500D01*
X229165569Y-88107500D02*
X229189378Y-88069404D01*
X229189378Y-88069404D02*
X229213188Y-87993214D01*
X229213188Y-87993214D02*
X229213188Y-87917023D01*
X229213188Y-87917023D02*
X229189378Y-87840833D01*
X229189378Y-87840833D02*
X229165569Y-87802738D01*
X229165569Y-87802738D02*
X229117950Y-87764642D01*
X229117950Y-87764642D02*
X229022712Y-87726547D01*
X229022712Y-87726547D02*
X228975093Y-87688452D01*
X228975093Y-87688452D02*
X228951283Y-87650357D01*
X228951283Y-87650357D02*
X228927474Y-87574166D01*
X228927474Y-87574166D02*
X228927474Y-87497976D01*
X228927474Y-87497976D02*
X228951283Y-87421785D01*
X228951283Y-87421785D02*
X228975093Y-87383690D01*
X228975093Y-87383690D02*
X229022712Y-87345595D01*
X229022712Y-87345595D02*
X229141759Y-87345595D01*
X229141759Y-87345595D02*
X229213188Y-87383690D01*
X229427473Y-88145595D02*
X229427473Y-87345595D01*
X229427473Y-87345595D02*
X229546521Y-87345595D01*
X229546521Y-87345595D02*
X229617949Y-87383690D01*
X229617949Y-87383690D02*
X229665568Y-87459880D01*
X229665568Y-87459880D02*
X229689378Y-87536071D01*
X229689378Y-87536071D02*
X229713187Y-87688452D01*
X229713187Y-87688452D02*
X229713187Y-87802738D01*
X229713187Y-87802738D02*
X229689378Y-87955119D01*
X229689378Y-87955119D02*
X229665568Y-88031309D01*
X229665568Y-88031309D02*
X229617949Y-88107500D01*
X229617949Y-88107500D02*
X229546521Y-88145595D01*
X229546521Y-88145595D02*
X229427473Y-88145595D01*
X230022711Y-87345595D02*
X230117949Y-87345595D01*
X230117949Y-87345595D02*
X230165568Y-87383690D01*
X230165568Y-87383690D02*
X230213187Y-87459880D01*
X230213187Y-87459880D02*
X230236997Y-87612261D01*
X230236997Y-87612261D02*
X230236997Y-87878928D01*
X230236997Y-87878928D02*
X230213187Y-88031309D01*
X230213187Y-88031309D02*
X230165568Y-88107500D01*
X230165568Y-88107500D02*
X230117949Y-88145595D01*
X230117949Y-88145595D02*
X230022711Y-88145595D01*
X230022711Y-88145595D02*
X229975092Y-88107500D01*
X229975092Y-88107500D02*
X229927473Y-88031309D01*
X229927473Y-88031309D02*
X229903664Y-87878928D01*
X229903664Y-87878928D02*
X229903664Y-87612261D01*
X229903664Y-87612261D02*
X229927473Y-87459880D01*
X229927473Y-87459880D02*
X229975092Y-87383690D01*
X229975092Y-87383690D02*
X230022711Y-87345595D01*
X231677474Y-88107500D02*
X231748902Y-88145595D01*
X231748902Y-88145595D02*
X231867950Y-88145595D01*
X231867950Y-88145595D02*
X231915569Y-88107500D01*
X231915569Y-88107500D02*
X231939378Y-88069404D01*
X231939378Y-88069404D02*
X231963188Y-87993214D01*
X231963188Y-87993214D02*
X231963188Y-87917023D01*
X231963188Y-87917023D02*
X231939378Y-87840833D01*
X231939378Y-87840833D02*
X231915569Y-87802738D01*
X231915569Y-87802738D02*
X231867950Y-87764642D01*
X231867950Y-87764642D02*
X231772712Y-87726547D01*
X231772712Y-87726547D02*
X231725093Y-87688452D01*
X231725093Y-87688452D02*
X231701283Y-87650357D01*
X231701283Y-87650357D02*
X231677474Y-87574166D01*
X231677474Y-87574166D02*
X231677474Y-87497976D01*
X231677474Y-87497976D02*
X231701283Y-87421785D01*
X231701283Y-87421785D02*
X231725093Y-87383690D01*
X231725093Y-87383690D02*
X231772712Y-87345595D01*
X231772712Y-87345595D02*
X231891759Y-87345595D01*
X231891759Y-87345595D02*
X231963188Y-87383690D01*
X232177473Y-88145595D02*
X232177473Y-87345595D01*
X232177473Y-87345595D02*
X232296521Y-87345595D01*
X232296521Y-87345595D02*
X232367949Y-87383690D01*
X232367949Y-87383690D02*
X232415568Y-87459880D01*
X232415568Y-87459880D02*
X232439378Y-87536071D01*
X232439378Y-87536071D02*
X232463187Y-87688452D01*
X232463187Y-87688452D02*
X232463187Y-87802738D01*
X232463187Y-87802738D02*
X232439378Y-87955119D01*
X232439378Y-87955119D02*
X232415568Y-88031309D01*
X232415568Y-88031309D02*
X232367949Y-88107500D01*
X232367949Y-88107500D02*
X232296521Y-88145595D01*
X232296521Y-88145595D02*
X232177473Y-88145595D01*
X232677473Y-88145595D02*
X232677473Y-87345595D01*
X234736997Y-88069404D02*
X234713188Y-88107500D01*
X234713188Y-88107500D02*
X234641759Y-88145595D01*
X234641759Y-88145595D02*
X234594140Y-88145595D01*
X234594140Y-88145595D02*
X234522712Y-88107500D01*
X234522712Y-88107500D02*
X234475093Y-88031309D01*
X234475093Y-88031309D02*
X234451283Y-87955119D01*
X234451283Y-87955119D02*
X234427474Y-87802738D01*
X234427474Y-87802738D02*
X234427474Y-87688452D01*
X234427474Y-87688452D02*
X234451283Y-87536071D01*
X234451283Y-87536071D02*
X234475093Y-87459880D01*
X234475093Y-87459880D02*
X234522712Y-87383690D01*
X234522712Y-87383690D02*
X234594140Y-87345595D01*
X234594140Y-87345595D02*
X234641759Y-87345595D01*
X234641759Y-87345595D02*
X234713188Y-87383690D01*
X234713188Y-87383690D02*
X234736997Y-87421785D01*
X234927474Y-88107500D02*
X234998902Y-88145595D01*
X234998902Y-88145595D02*
X235117950Y-88145595D01*
X235117950Y-88145595D02*
X235165569Y-88107500D01*
X235165569Y-88107500D02*
X235189378Y-88069404D01*
X235189378Y-88069404D02*
X235213188Y-87993214D01*
X235213188Y-87993214D02*
X235213188Y-87917023D01*
X235213188Y-87917023D02*
X235189378Y-87840833D01*
X235189378Y-87840833D02*
X235165569Y-87802738D01*
X235165569Y-87802738D02*
X235117950Y-87764642D01*
X235117950Y-87764642D02*
X235022712Y-87726547D01*
X235022712Y-87726547D02*
X234975093Y-87688452D01*
X234975093Y-87688452D02*
X234951283Y-87650357D01*
X234951283Y-87650357D02*
X234927474Y-87574166D01*
X234927474Y-87574166D02*
X234927474Y-87497976D01*
X234927474Y-87497976D02*
X234951283Y-87421785D01*
X234951283Y-87421785D02*
X234975093Y-87383690D01*
X234975093Y-87383690D02*
X235022712Y-87345595D01*
X235022712Y-87345595D02*
X235141759Y-87345595D01*
X235141759Y-87345595D02*
X235213188Y-87383690D01*
D11*
%TO.C,Q1*%
X222700000Y-92315000D02*
X221300000Y-92315000D01*
X222710000Y-94635000D02*
X221300000Y-94635000D01*
X223320000Y-94915000D02*
X222840000Y-94915000D01*
X223080000Y-94585000D01*
X223320000Y-94915000D01*
G36*
X223320000Y-94915000D02*
G01*
X222840000Y-94915000D01*
X223080000Y-94585000D01*
X223320000Y-94915000D01*
G37*
%TO.C,R1*%
X227272936Y-97210000D02*
X227727064Y-97210000D01*
X227272936Y-95740000D02*
X227727064Y-95740000D01*
%TO.C,C1*%
X221288748Y-97385000D02*
X222711252Y-97385000D01*
X221288748Y-95565000D02*
X222711252Y-95565000D01*
%TO.C,U2*%
X234340000Y-99277500D02*
X234010000Y-99037500D01*
X234340000Y-98797500D01*
X234340000Y-99277500D01*
G36*
X234340000Y-99277500D02*
G01*
X234010000Y-99037500D01*
X234340000Y-98797500D01*
X234340000Y-99277500D01*
G37*
X234060000Y-100337500D02*
X234060000Y-101137500D01*
X234060000Y-100337500D02*
X234060000Y-99537500D01*
X230940000Y-100337500D02*
X230940000Y-101137500D01*
X230940000Y-100337500D02*
X230940000Y-99537500D01*
%TO.C,R3*%
X232727064Y-105210000D02*
X232272936Y-105210000D01*
X232727064Y-103740000D02*
X232272936Y-103740000D01*
%TO.C,J3*%
X241310000Y-98940000D02*
X241310000Y-95060000D01*
X239340000Y-100110000D02*
X236840000Y-100110000D01*
X239340000Y-93890000D02*
X236840000Y-93890000D01*
X236840000Y-100110000D02*
X236840000Y-99060000D01*
X236840000Y-99060000D02*
X235850000Y-99060000D01*
X236840000Y-93890000D02*
X236840000Y-94940000D01*
%TO.C,C2*%
X231788748Y-94385000D02*
X233211252Y-94385000D01*
X231788748Y-92565000D02*
X233211252Y-92565000D01*
%TO.C,U1*%
X229100000Y-102355000D02*
X229100000Y-102075000D01*
X229380000Y-102075000D01*
X229100000Y-102355000D01*
G36*
X229100000Y-102355000D02*
G01*
X229100000Y-102075000D01*
X229380000Y-102075000D01*
X229100000Y-102355000D01*
G37*
X229210000Y-101835000D02*
X229210000Y-98975000D01*
X225790000Y-101835000D02*
X225790000Y-98975000D01*
%TO.C,J1*%
X218070000Y-88645000D02*
X219400000Y-88645000D01*
X218070000Y-89975000D02*
X218070000Y-88645000D01*
X220670000Y-88645000D02*
X235970000Y-88645000D01*
X220670000Y-91305000D02*
X220670000Y-88645000D01*
X220670000Y-91305000D02*
X235970000Y-91305000D01*
X235970000Y-91305000D02*
X235970000Y-88645000D01*
%TO.C,D2*%
X228500000Y-103515000D02*
X225640000Y-103515000D01*
X225640000Y-105435000D02*
X228500000Y-105435000D01*
X225640000Y-103515000D02*
X225640000Y-105435000D01*
%TO.C,C3*%
X221738748Y-105210000D02*
X222261252Y-105210000D01*
X221738748Y-103740000D02*
X222261252Y-103740000D01*
%TO.C,R2*%
X227727064Y-94210000D02*
X227272936Y-94210000D01*
X227727064Y-92740000D02*
X227272936Y-92740000D01*
%TO.C,RN1*%
X223780000Y-101475000D02*
X223780000Y-100475000D01*
X220420000Y-101475000D02*
X220420000Y-100475000D01*
%TO.C,D1*%
X234860000Y-97475000D02*
X234860000Y-95475000D01*
X234860000Y-97475000D02*
X230850000Y-97475000D01*
X234860000Y-95475000D02*
X230850000Y-95475000D01*
%TO.C,J2*%
X212752500Y-95060000D02*
X212752500Y-98940000D01*
X214722500Y-93890000D02*
X217222500Y-93890000D01*
X214722500Y-100110000D02*
X217222500Y-100110000D01*
X217222500Y-93890000D02*
X217222500Y-94940000D01*
X217222500Y-94940000D02*
X218212500Y-94940000D01*
X217222500Y-100110000D02*
X217222500Y-99060000D01*
%TD*%
M02*
