%TF.GenerationSoftware,KiCad,Pcbnew,8.0.5*%
%TF.CreationDate,2024-10-20T21:33:00-07:00*%
%TF.ProjectId,bme688-ezzat-suhaime,626d6536-3838-42d6-957a-7a61742d7375,rev?*%
%TF.SameCoordinates,Original*%
%TF.FileFunction,Copper,L2,Inr*%
%TF.FilePolarity,Positive*%
%FSLAX46Y46*%
G04 Gerber Fmt 4.6, Leading zero omitted, Abs format (unit mm)*
G04 Created by KiCad (PCBNEW 8.0.5) date 2024-10-20 21:33:00*
%MOMM*%
%LPD*%
G01*
G04 APERTURE LIST*
%TA.AperFunction,ComponentPad*%
%ADD10C,2.600000*%
%TD*%
%TA.AperFunction,ComponentPad*%
%ADD11R,1.700000X1.700000*%
%TD*%
%TA.AperFunction,ComponentPad*%
%ADD12O,1.700000X1.700000*%
%TD*%
%TA.AperFunction,ViaPad*%
%ADD13C,0.800000*%
%TD*%
G04 APERTURE END LIST*
D10*
%TO.N,unconnected-(H1-Pad1)_2*%
%TO.C,H1*%
X214500000Y-89500000D03*
%TD*%
D11*
%TO.N,VCC*%
%TO.C,J1*%
X219400000Y-89975000D03*
D12*
%TO.N,+3.3V*%
X221940000Y-89975000D03*
%TO.N,GND*%
X224480000Y-89975000D03*
%TO.N,/SCK{slash}SCL*%
X227020000Y-89975000D03*
%TO.N,/SDO{slash}ADR*%
X229560000Y-89975000D03*
%TO.N,/SDI{slash}SDA*%
X232100000Y-89975000D03*
%TO.N,/CS*%
X234640000Y-89975000D03*
%TD*%
D10*
%TO.N,unconnected-(H2-Pad1)*%
%TO.C,H2*%
X239500000Y-104500000D03*
%TD*%
D13*
%TO.N,+3.3V*%
X224795200Y-95250000D03*
%TO.N,/SDO{slash}ADR*%
X225061139Y-93025000D03*
%TO.N,VCC*%
X219875000Y-98125000D03*
%TO.N,/SCK{slash}SCL*%
X224714341Y-99750000D03*
%TO.N,VCC*%
X215750000Y-101250000D03*
%TO.N,GND*%
X213562500Y-92750000D03*
X235750000Y-92500000D03*
X240500000Y-92750000D03*
X232500000Y-102725000D03*
X213562500Y-101250000D03*
X226500000Y-97975000D03*
X240500000Y-101250000D03*
X224795200Y-97000000D03*
X230260100Y-100214900D03*
X225000000Y-104475000D03*
%TO.N,VCC*%
X216500000Y-91750000D03*
X234750000Y-99250000D03*
%TO.N,+3.3V*%
X219750000Y-104475000D03*
X219004800Y-93250000D03*
X234750000Y-101475000D03*
X229700000Y-93475000D03*
X219750000Y-101725000D03*
X234750000Y-104475000D03*
X228700000Y-97975000D03*
%TO.N,/SDI{slash}SDA*%
X222500000Y-99250000D03*
X232469669Y-96505331D03*
%TO.N,/SCK{slash}SCL*%
X219317300Y-95347600D03*
%TO.N,VCC*%
X225000000Y-101975000D03*
%TD*%
%TA.AperFunction,Conductor*%
%TO.N,GND*%
G36*
X241688539Y-87274185D02*
G01*
X241734294Y-87326989D01*
X241745500Y-87378500D01*
X241745500Y-106621500D01*
X241725815Y-106688539D01*
X241673011Y-106734294D01*
X241621500Y-106745500D01*
X212378500Y-106745500D01*
X212311461Y-106725815D01*
X212265706Y-106673011D01*
X212254500Y-106621500D01*
X212254500Y-104397397D01*
X213196300Y-104397397D01*
X213196300Y-104602603D01*
X213206172Y-104664931D01*
X213228402Y-104805285D01*
X213228402Y-104805288D01*
X213291812Y-105000444D01*
X213291813Y-105000447D01*
X213309197Y-105034564D01*
X213384976Y-105183288D01*
X213505594Y-105349303D01*
X213650697Y-105494406D01*
X213816712Y-105615024D01*
X213906390Y-105660717D01*
X213999552Y-105708186D01*
X213999555Y-105708187D01*
X214077591Y-105733542D01*
X214194716Y-105771598D01*
X214397397Y-105803700D01*
X214397398Y-105803700D01*
X214602602Y-105803700D01*
X214602603Y-105803700D01*
X214805284Y-105771598D01*
X214805287Y-105771597D01*
X214805288Y-105771597D01*
X215000444Y-105708187D01*
X215000447Y-105708186D01*
X215183288Y-105615024D01*
X215349303Y-105494406D01*
X215494406Y-105349303D01*
X215615024Y-105183288D01*
X215708186Y-105000447D01*
X215771598Y-104805284D01*
X215803700Y-104602603D01*
X215803700Y-104475000D01*
X218836496Y-104475000D01*
X218856458Y-104664928D01*
X218856459Y-104664931D01*
X218915470Y-104846549D01*
X218915473Y-104846556D01*
X219010960Y-105011944D01*
X219138747Y-105153866D01*
X219293248Y-105266118D01*
X219467712Y-105343794D01*
X219654513Y-105383500D01*
X219845487Y-105383500D01*
X220032288Y-105343794D01*
X220206752Y-105266118D01*
X220361253Y-105153866D01*
X220489040Y-105011944D01*
X220584527Y-104846556D01*
X220643542Y-104664928D01*
X220663504Y-104475000D01*
X233836496Y-104475000D01*
X233856458Y-104664928D01*
X233856459Y-104664931D01*
X233915470Y-104846549D01*
X233915473Y-104846556D01*
X234010960Y-105011944D01*
X234138747Y-105153866D01*
X234293248Y-105266118D01*
X234467712Y-105343794D01*
X234654513Y-105383500D01*
X234845487Y-105383500D01*
X235032288Y-105343794D01*
X235206752Y-105266118D01*
X235361253Y-105153866D01*
X235489040Y-105011944D01*
X235584527Y-104846556D01*
X235643542Y-104664928D01*
X235660877Y-104499995D01*
X237686429Y-104499995D01*
X237686429Y-104500004D01*
X237706683Y-104770289D01*
X237706684Y-104770294D01*
X237766997Y-105034545D01*
X237766999Y-105034554D01*
X237767001Y-105034559D01*
X237866029Y-105286879D01*
X238001557Y-105521621D01*
X238170558Y-105733542D01*
X238369257Y-105917907D01*
X238593215Y-106070599D01*
X238837428Y-106188206D01*
X239096442Y-106268101D01*
X239096443Y-106268101D01*
X239096446Y-106268102D01*
X239364464Y-106308499D01*
X239364469Y-106308499D01*
X239364472Y-106308500D01*
X239364473Y-106308500D01*
X239635527Y-106308500D01*
X239635528Y-106308500D01*
X239635535Y-106308499D01*
X239903553Y-106268102D01*
X239903554Y-106268101D01*
X239903558Y-106268101D01*
X240162572Y-106188206D01*
X240406786Y-106070599D01*
X240630743Y-105917907D01*
X240829442Y-105733542D01*
X240998443Y-105521621D01*
X241133971Y-105286879D01*
X241232999Y-105034559D01*
X241293315Y-104770299D01*
X241301211Y-104664931D01*
X241313571Y-104500004D01*
X241313571Y-104499995D01*
X241293316Y-104229710D01*
X241293315Y-104229705D01*
X241293315Y-104229701D01*
X241232999Y-103965441D01*
X241133971Y-103713121D01*
X240998443Y-103478379D01*
X240829442Y-103266458D01*
X240630743Y-103082093D01*
X240406786Y-102929401D01*
X240406780Y-102929398D01*
X240406779Y-102929397D01*
X240406778Y-102929396D01*
X240162574Y-102811795D01*
X240162576Y-102811795D01*
X239903559Y-102731899D01*
X239903553Y-102731897D01*
X239635535Y-102691500D01*
X239635528Y-102691500D01*
X239364472Y-102691500D01*
X239364464Y-102691500D01*
X239096446Y-102731897D01*
X239096440Y-102731899D01*
X238837427Y-102811794D01*
X238593219Y-102929398D01*
X238369256Y-103082093D01*
X238170560Y-103266456D01*
X238170558Y-103266458D01*
X238001557Y-103478379D01*
X237866029Y-103713120D01*
X237767003Y-103965435D01*
X237766997Y-103965454D01*
X237706684Y-104229705D01*
X237706683Y-104229710D01*
X237686429Y-104499995D01*
X235660877Y-104499995D01*
X235663504Y-104475000D01*
X235643542Y-104285072D01*
X235584527Y-104103444D01*
X235489040Y-103938056D01*
X235361253Y-103796134D01*
X235206752Y-103683882D01*
X235032288Y-103606206D01*
X235032286Y-103606205D01*
X234845487Y-103566500D01*
X234654513Y-103566500D01*
X234467714Y-103606205D01*
X234293246Y-103683883D01*
X234138745Y-103796135D01*
X234010959Y-103938057D01*
X233915473Y-104103443D01*
X233915470Y-104103450D01*
X233874446Y-104229710D01*
X233856458Y-104285072D01*
X233836496Y-104475000D01*
X220663504Y-104475000D01*
X220643542Y-104285072D01*
X220584527Y-104103444D01*
X220489040Y-103938056D01*
X220361253Y-103796134D01*
X220206752Y-103683882D01*
X220032288Y-103606206D01*
X220032286Y-103606205D01*
X219845487Y-103566500D01*
X219654513Y-103566500D01*
X219467714Y-103606205D01*
X219293246Y-103683883D01*
X219138745Y-103796135D01*
X219010959Y-103938057D01*
X218915473Y-104103443D01*
X218915470Y-104103450D01*
X218874446Y-104229710D01*
X218856458Y-104285072D01*
X218836496Y-104475000D01*
X215803700Y-104475000D01*
X215803700Y-104397397D01*
X215771598Y-104194716D01*
X215771597Y-104194712D01*
X215771597Y-104194711D01*
X215708187Y-103999555D01*
X215708186Y-103999552D01*
X215615023Y-103816711D01*
X215494406Y-103650697D01*
X215349303Y-103505594D01*
X215183288Y-103384976D01*
X215000447Y-103291813D01*
X215000444Y-103291812D01*
X214805286Y-103228402D01*
X214670163Y-103207000D01*
X214602603Y-103196300D01*
X214397397Y-103196300D01*
X214329836Y-103207000D01*
X214194714Y-103228402D01*
X214194711Y-103228402D01*
X213999555Y-103291812D01*
X213999552Y-103291813D01*
X213816711Y-103384976D01*
X213650695Y-103505595D01*
X213505595Y-103650695D01*
X213384976Y-103816711D01*
X213291813Y-103999552D01*
X213291812Y-103999555D01*
X213228402Y-104194711D01*
X213228402Y-104194714D01*
X213228402Y-104194716D01*
X213196300Y-104397397D01*
X212254500Y-104397397D01*
X212254500Y-101250000D01*
X214836496Y-101250000D01*
X214856458Y-101439928D01*
X214856459Y-101439931D01*
X214915470Y-101621549D01*
X214915473Y-101621556D01*
X215010960Y-101786944D01*
X215138747Y-101928866D01*
X215293248Y-102041118D01*
X215467712Y-102118794D01*
X215654513Y-102158500D01*
X215845487Y-102158500D01*
X216032288Y-102118794D01*
X216206752Y-102041118D01*
X216361253Y-101928866D01*
X216489040Y-101786944D01*
X216524803Y-101725000D01*
X218836496Y-101725000D01*
X218856458Y-101914928D01*
X218856459Y-101914931D01*
X218915470Y-102096549D01*
X218915473Y-102096556D01*
X219010960Y-102261944D01*
X219138747Y-102403866D01*
X219293248Y-102516118D01*
X219467712Y-102593794D01*
X219654513Y-102633500D01*
X219845487Y-102633500D01*
X220032288Y-102593794D01*
X220206752Y-102516118D01*
X220361253Y-102403866D01*
X220489040Y-102261944D01*
X220584527Y-102096556D01*
X220624023Y-101975000D01*
X224086496Y-101975000D01*
X224106458Y-102164928D01*
X224106459Y-102164931D01*
X224165470Y-102346549D01*
X224165473Y-102346556D01*
X224260960Y-102511944D01*
X224388747Y-102653866D01*
X224543248Y-102766118D01*
X224717712Y-102843794D01*
X224904513Y-102883500D01*
X225095487Y-102883500D01*
X225282288Y-102843794D01*
X225456752Y-102766118D01*
X225611253Y-102653866D01*
X225739040Y-102511944D01*
X225834527Y-102346556D01*
X225893542Y-102164928D01*
X225913504Y-101975000D01*
X225893542Y-101785072D01*
X225834527Y-101603444D01*
X225760370Y-101475000D01*
X233836496Y-101475000D01*
X233856458Y-101664928D01*
X233856459Y-101664931D01*
X233915470Y-101846549D01*
X233915473Y-101846556D01*
X234010960Y-102011944D01*
X234138747Y-102153866D01*
X234293248Y-102266118D01*
X234467712Y-102343794D01*
X234654513Y-102383500D01*
X234845487Y-102383500D01*
X235032288Y-102343794D01*
X235206752Y-102266118D01*
X235361253Y-102153866D01*
X235489040Y-102011944D01*
X235584527Y-101846556D01*
X235643542Y-101664928D01*
X235663504Y-101475000D01*
X235643542Y-101285072D01*
X235584527Y-101103444D01*
X235489040Y-100938056D01*
X235361253Y-100796134D01*
X235206752Y-100683882D01*
X235032288Y-100606206D01*
X235032286Y-100606205D01*
X234845487Y-100566500D01*
X234654513Y-100566500D01*
X234467714Y-100606205D01*
X234293246Y-100683883D01*
X234138745Y-100796135D01*
X234010959Y-100938057D01*
X233915473Y-101103443D01*
X233915470Y-101103450D01*
X233856459Y-101285068D01*
X233856458Y-101285072D01*
X233836496Y-101475000D01*
X225760370Y-101475000D01*
X225739040Y-101438056D01*
X225611253Y-101296134D01*
X225456752Y-101183882D01*
X225282288Y-101106206D01*
X225282286Y-101106205D01*
X225095487Y-101066500D01*
X224904513Y-101066500D01*
X224717714Y-101106205D01*
X224543246Y-101183883D01*
X224388745Y-101296135D01*
X224260959Y-101438057D01*
X224165473Y-101603443D01*
X224165470Y-101603450D01*
X224106459Y-101785068D01*
X224106458Y-101785072D01*
X224086496Y-101975000D01*
X220624023Y-101975000D01*
X220643542Y-101914928D01*
X220663504Y-101725000D01*
X220643542Y-101535072D01*
X220584527Y-101353444D01*
X220489040Y-101188056D01*
X220361253Y-101046134D01*
X220206752Y-100933882D01*
X220032288Y-100856206D01*
X220032286Y-100856205D01*
X219845487Y-100816500D01*
X219654513Y-100816500D01*
X219467714Y-100856205D01*
X219293246Y-100933883D01*
X219138745Y-101046135D01*
X219010959Y-101188057D01*
X218915473Y-101353443D01*
X218915470Y-101353450D01*
X218856459Y-101535068D01*
X218856458Y-101535072D01*
X218836496Y-101725000D01*
X216524803Y-101725000D01*
X216584527Y-101621556D01*
X216643542Y-101439928D01*
X216663504Y-101250000D01*
X216643542Y-101060072D01*
X216584527Y-100878444D01*
X216489040Y-100713056D01*
X216361253Y-100571134D01*
X216206752Y-100458882D01*
X216032288Y-100381206D01*
X216032286Y-100381205D01*
X215845487Y-100341500D01*
X215654513Y-100341500D01*
X215467714Y-100381205D01*
X215293246Y-100458883D01*
X215138745Y-100571135D01*
X215010959Y-100713057D01*
X214915473Y-100878443D01*
X214915470Y-100878450D01*
X214860986Y-101046135D01*
X214856458Y-101060072D01*
X214836496Y-101250000D01*
X212254500Y-101250000D01*
X212254500Y-99250000D01*
X221586496Y-99250000D01*
X221606458Y-99439928D01*
X221606459Y-99439931D01*
X221665470Y-99621549D01*
X221665473Y-99621556D01*
X221760960Y-99786944D01*
X221888747Y-99928866D01*
X222043248Y-100041118D01*
X222217712Y-100118794D01*
X222404513Y-100158500D01*
X222595487Y-100158500D01*
X222782288Y-100118794D01*
X222956752Y-100041118D01*
X223111253Y-99928866D01*
X223239040Y-99786944D01*
X223260370Y-99750000D01*
X223800837Y-99750000D01*
X223820799Y-99939928D01*
X223820800Y-99939931D01*
X223879811Y-100121549D01*
X223879814Y-100121556D01*
X223975301Y-100286944D01*
X224103088Y-100428866D01*
X224257589Y-100541118D01*
X224432053Y-100618794D01*
X224618854Y-100658500D01*
X224809828Y-100658500D01*
X224996629Y-100618794D01*
X225171093Y-100541118D01*
X225325594Y-100428866D01*
X225453381Y-100286944D01*
X225548868Y-100121556D01*
X225607883Y-99939928D01*
X225627845Y-99750000D01*
X225607883Y-99560072D01*
X225548868Y-99378444D01*
X225474711Y-99250000D01*
X233836496Y-99250000D01*
X233856458Y-99439928D01*
X233856459Y-99439931D01*
X233915470Y-99621549D01*
X233915473Y-99621556D01*
X234010960Y-99786944D01*
X234138747Y-99928866D01*
X234293248Y-100041118D01*
X234467712Y-100118794D01*
X234654513Y-100158500D01*
X234845487Y-100158500D01*
X235032288Y-100118794D01*
X235206752Y-100041118D01*
X235361253Y-99928866D01*
X235489040Y-99786944D01*
X235584527Y-99621556D01*
X235643542Y-99439928D01*
X235663504Y-99250000D01*
X235643542Y-99060072D01*
X235584527Y-98878444D01*
X235489040Y-98713056D01*
X235361253Y-98571134D01*
X235206752Y-98458882D01*
X235032288Y-98381206D01*
X235032286Y-98381205D01*
X234845487Y-98341500D01*
X234654513Y-98341500D01*
X234467714Y-98381205D01*
X234293246Y-98458883D01*
X234138745Y-98571135D01*
X234010959Y-98713057D01*
X233915473Y-98878443D01*
X233915470Y-98878450D01*
X233856459Y-99060068D01*
X233856458Y-99060072D01*
X233836496Y-99250000D01*
X225474711Y-99250000D01*
X225453381Y-99213056D01*
X225325594Y-99071134D01*
X225171093Y-98958882D01*
X224996629Y-98881206D01*
X224996627Y-98881205D01*
X224809828Y-98841500D01*
X224618854Y-98841500D01*
X224432055Y-98881205D01*
X224257587Y-98958883D01*
X224103086Y-99071135D01*
X223975300Y-99213057D01*
X223879814Y-99378443D01*
X223879811Y-99378450D01*
X223859836Y-99439928D01*
X223820799Y-99560072D01*
X223800837Y-99750000D01*
X223260370Y-99750000D01*
X223334527Y-99621556D01*
X223393542Y-99439928D01*
X223413504Y-99250000D01*
X223393542Y-99060072D01*
X223334527Y-98878444D01*
X223239040Y-98713056D01*
X223111253Y-98571134D01*
X222956752Y-98458882D01*
X222782288Y-98381206D01*
X222782286Y-98381205D01*
X222595487Y-98341500D01*
X222404513Y-98341500D01*
X222217714Y-98381205D01*
X222043246Y-98458883D01*
X221888745Y-98571135D01*
X221760959Y-98713057D01*
X221665473Y-98878443D01*
X221665470Y-98878450D01*
X221606459Y-99060068D01*
X221606458Y-99060072D01*
X221586496Y-99250000D01*
X212254500Y-99250000D01*
X212254500Y-98125000D01*
X218961496Y-98125000D01*
X218981458Y-98314928D01*
X218981459Y-98314931D01*
X219040470Y-98496549D01*
X219040473Y-98496556D01*
X219135960Y-98661944D01*
X219263747Y-98803866D01*
X219418248Y-98916118D01*
X219592712Y-98993794D01*
X219779513Y-99033500D01*
X219970487Y-99033500D01*
X220157288Y-98993794D01*
X220331752Y-98916118D01*
X220486253Y-98803866D01*
X220614040Y-98661944D01*
X220709527Y-98496556D01*
X220768542Y-98314928D01*
X220788504Y-98125000D01*
X220772739Y-97975000D01*
X227786496Y-97975000D01*
X227806458Y-98164928D01*
X227806459Y-98164931D01*
X227865470Y-98346549D01*
X227865473Y-98346556D01*
X227960960Y-98511944D01*
X228088747Y-98653866D01*
X228243248Y-98766118D01*
X228417712Y-98843794D01*
X228604513Y-98883500D01*
X228795487Y-98883500D01*
X228982288Y-98843794D01*
X229156752Y-98766118D01*
X229311253Y-98653866D01*
X229439040Y-98511944D01*
X229534527Y-98346556D01*
X229593542Y-98164928D01*
X229613504Y-97975000D01*
X229593542Y-97785072D01*
X229534527Y-97603444D01*
X229439040Y-97438056D01*
X229311253Y-97296134D01*
X229156752Y-97183882D01*
X228982288Y-97106206D01*
X228982286Y-97106205D01*
X228795487Y-97066500D01*
X228604513Y-97066500D01*
X228417714Y-97106205D01*
X228243246Y-97183883D01*
X228088745Y-97296135D01*
X227960959Y-97438057D01*
X227865473Y-97603443D01*
X227865470Y-97603450D01*
X227806459Y-97785068D01*
X227806458Y-97785072D01*
X227786496Y-97975000D01*
X220772739Y-97975000D01*
X220768542Y-97935072D01*
X220709527Y-97753444D01*
X220614040Y-97588056D01*
X220486253Y-97446134D01*
X220331752Y-97333882D01*
X220157288Y-97256206D01*
X220157286Y-97256205D01*
X219970487Y-97216500D01*
X219779513Y-97216500D01*
X219592714Y-97256205D01*
X219418246Y-97333883D01*
X219263745Y-97446135D01*
X219135959Y-97588057D01*
X219040473Y-97753443D01*
X219040470Y-97753450D01*
X218981459Y-97935068D01*
X218981458Y-97935072D01*
X218961496Y-98125000D01*
X212254500Y-98125000D01*
X212254500Y-96505331D01*
X231556165Y-96505331D01*
X231576127Y-96695259D01*
X231576128Y-96695262D01*
X231635139Y-96876880D01*
X231635142Y-96876887D01*
X231730629Y-97042275D01*
X231858416Y-97184197D01*
X232012917Y-97296449D01*
X232187381Y-97374125D01*
X232374182Y-97413831D01*
X232565156Y-97413831D01*
X232751957Y-97374125D01*
X232926421Y-97296449D01*
X233080922Y-97184197D01*
X233208709Y-97042275D01*
X233304196Y-96876887D01*
X233363211Y-96695259D01*
X233383173Y-96505331D01*
X233363211Y-96315403D01*
X233304196Y-96133775D01*
X233208709Y-95968387D01*
X233080922Y-95826465D01*
X232926421Y-95714213D01*
X232751957Y-95636537D01*
X232751955Y-95636536D01*
X232565156Y-95596831D01*
X232374182Y-95596831D01*
X232187383Y-95636536D01*
X232012915Y-95714214D01*
X231858414Y-95826466D01*
X231730628Y-95968388D01*
X231635142Y-96133774D01*
X231635139Y-96133781D01*
X231576128Y-96315399D01*
X231576127Y-96315403D01*
X231556165Y-96505331D01*
X212254500Y-96505331D01*
X212254500Y-95347600D01*
X218403796Y-95347600D01*
X218423758Y-95537528D01*
X218423759Y-95537531D01*
X218482770Y-95719149D01*
X218482773Y-95719156D01*
X218578260Y-95884544D01*
X218706047Y-96026466D01*
X218860548Y-96138718D01*
X219035012Y-96216394D01*
X219221813Y-96256100D01*
X219412787Y-96256100D01*
X219599588Y-96216394D01*
X219774052Y-96138718D01*
X219928553Y-96026466D01*
X220056340Y-95884544D01*
X220151827Y-95719156D01*
X220210842Y-95537528D01*
X220230804Y-95347600D01*
X220220546Y-95250000D01*
X223881696Y-95250000D01*
X223901658Y-95439928D01*
X223901659Y-95439931D01*
X223960670Y-95621549D01*
X223960673Y-95621556D01*
X224056160Y-95786944D01*
X224183947Y-95928866D01*
X224338448Y-96041118D01*
X224512912Y-96118794D01*
X224699713Y-96158500D01*
X224890687Y-96158500D01*
X225077488Y-96118794D01*
X225251952Y-96041118D01*
X225406453Y-95928866D01*
X225534240Y-95786944D01*
X225629727Y-95621556D01*
X225688742Y-95439928D01*
X225708704Y-95250000D01*
X225688742Y-95060072D01*
X225629727Y-94878444D01*
X225534240Y-94713056D01*
X225406453Y-94571134D01*
X225251952Y-94458882D01*
X225077488Y-94381206D01*
X225077486Y-94381205D01*
X224890687Y-94341500D01*
X224699713Y-94341500D01*
X224512914Y-94381205D01*
X224338446Y-94458883D01*
X224183945Y-94571135D01*
X224056159Y-94713057D01*
X223960673Y-94878443D01*
X223960670Y-94878450D01*
X223901659Y-95060068D01*
X223901658Y-95060072D01*
X223881696Y-95250000D01*
X220220546Y-95250000D01*
X220210842Y-95157672D01*
X220151827Y-94976044D01*
X220056340Y-94810656D01*
X219928553Y-94668734D01*
X219774052Y-94556482D01*
X219599588Y-94478806D01*
X219599586Y-94478805D01*
X219412787Y-94439100D01*
X219221813Y-94439100D01*
X219035014Y-94478805D01*
X218860546Y-94556483D01*
X218706045Y-94668735D01*
X218578259Y-94810657D01*
X218482773Y-94976043D01*
X218482770Y-94976050D01*
X218455470Y-95060072D01*
X218423758Y-95157672D01*
X218403796Y-95347600D01*
X212254500Y-95347600D01*
X212254500Y-93250000D01*
X218091296Y-93250000D01*
X218111258Y-93439928D01*
X218111259Y-93439931D01*
X218170270Y-93621549D01*
X218170273Y-93621556D01*
X218265760Y-93786944D01*
X218393547Y-93928866D01*
X218548048Y-94041118D01*
X218722512Y-94118794D01*
X218909313Y-94158500D01*
X219100287Y-94158500D01*
X219287088Y-94118794D01*
X219461552Y-94041118D01*
X219616053Y-93928866D01*
X219743840Y-93786944D01*
X219839327Y-93621556D01*
X219898342Y-93439928D01*
X219918304Y-93250000D01*
X219898342Y-93060072D01*
X219886946Y-93025000D01*
X224147635Y-93025000D01*
X224167597Y-93214928D01*
X224167598Y-93214931D01*
X224226609Y-93396549D01*
X224226612Y-93396556D01*
X224322099Y-93561944D01*
X224449886Y-93703866D01*
X224604387Y-93816118D01*
X224778851Y-93893794D01*
X224965652Y-93933500D01*
X225156626Y-93933500D01*
X225343427Y-93893794D01*
X225517891Y-93816118D01*
X225672392Y-93703866D01*
X225800179Y-93561944D01*
X225850376Y-93475000D01*
X228786496Y-93475000D01*
X228806458Y-93664928D01*
X228806459Y-93664931D01*
X228865470Y-93846549D01*
X228865473Y-93846556D01*
X228960960Y-94011944D01*
X229088747Y-94153866D01*
X229243248Y-94266118D01*
X229417712Y-94343794D01*
X229604513Y-94383500D01*
X229795487Y-94383500D01*
X229982288Y-94343794D01*
X230156752Y-94266118D01*
X230311253Y-94153866D01*
X230439040Y-94011944D01*
X230534527Y-93846556D01*
X230593542Y-93664928D01*
X230613504Y-93475000D01*
X230593542Y-93285072D01*
X230534527Y-93103444D01*
X230439040Y-92938056D01*
X230311253Y-92796134D01*
X230156752Y-92683882D01*
X229982288Y-92606206D01*
X229982286Y-92606205D01*
X229795487Y-92566500D01*
X229604513Y-92566500D01*
X229417714Y-92606205D01*
X229243246Y-92683883D01*
X229088745Y-92796135D01*
X228960959Y-92938057D01*
X228865473Y-93103443D01*
X228865470Y-93103450D01*
X228806459Y-93285068D01*
X228806458Y-93285072D01*
X228786496Y-93475000D01*
X225850376Y-93475000D01*
X225895666Y-93396556D01*
X225954681Y-93214928D01*
X225974643Y-93025000D01*
X225954681Y-92835072D01*
X225895666Y-92653444D01*
X225800179Y-92488056D01*
X225672392Y-92346134D01*
X225517891Y-92233882D01*
X225343427Y-92156206D01*
X225343425Y-92156205D01*
X225156626Y-92116500D01*
X224965652Y-92116500D01*
X224778853Y-92156205D01*
X224604385Y-92233883D01*
X224449884Y-92346135D01*
X224322098Y-92488057D01*
X224226612Y-92653443D01*
X224226609Y-92653450D01*
X224167598Y-92835068D01*
X224167597Y-92835072D01*
X224147635Y-93025000D01*
X219886946Y-93025000D01*
X219839327Y-92878444D01*
X219743840Y-92713056D01*
X219616053Y-92571134D01*
X219461552Y-92458882D01*
X219287088Y-92381206D01*
X219287086Y-92381205D01*
X219100287Y-92341500D01*
X218909313Y-92341500D01*
X218722514Y-92381205D01*
X218548046Y-92458883D01*
X218393545Y-92571135D01*
X218265759Y-92713057D01*
X218170273Y-92878443D01*
X218170270Y-92878450D01*
X218111259Y-93060068D01*
X218111258Y-93060072D01*
X218091296Y-93250000D01*
X212254500Y-93250000D01*
X212254500Y-91750000D01*
X215586496Y-91750000D01*
X215606458Y-91939928D01*
X215606459Y-91939931D01*
X215665470Y-92121549D01*
X215665473Y-92121556D01*
X215760960Y-92286944D01*
X215888747Y-92428866D01*
X216043248Y-92541118D01*
X216217712Y-92618794D01*
X216404513Y-92658500D01*
X216595487Y-92658500D01*
X216782288Y-92618794D01*
X216956752Y-92541118D01*
X217111253Y-92428866D01*
X217239040Y-92286944D01*
X217334527Y-92121556D01*
X217393542Y-91939928D01*
X217413504Y-91750000D01*
X217393542Y-91560072D01*
X217334527Y-91378444D01*
X217239040Y-91213056D01*
X217111253Y-91071134D01*
X216956752Y-90958882D01*
X216782288Y-90881206D01*
X216782286Y-90881205D01*
X216595487Y-90841500D01*
X216404513Y-90841500D01*
X216217714Y-90881205D01*
X216217712Y-90881206D01*
X216098681Y-90934202D01*
X216043246Y-90958883D01*
X215888745Y-91071135D01*
X215760959Y-91213057D01*
X215665473Y-91378443D01*
X215665470Y-91378450D01*
X215606459Y-91560068D01*
X215606458Y-91560072D01*
X215586496Y-91750000D01*
X212254500Y-91750000D01*
X212254500Y-89499995D01*
X212686429Y-89499995D01*
X212686429Y-89500004D01*
X212706683Y-89770289D01*
X212706684Y-89770294D01*
X212766997Y-90034545D01*
X212766999Y-90034554D01*
X212767001Y-90034559D01*
X212866029Y-90286879D01*
X213001557Y-90521621D01*
X213170558Y-90733542D01*
X213369257Y-90917907D01*
X213593215Y-91070599D01*
X213837428Y-91188206D01*
X214096442Y-91268101D01*
X214096443Y-91268101D01*
X214096446Y-91268102D01*
X214364464Y-91308499D01*
X214364469Y-91308499D01*
X214364472Y-91308500D01*
X214364473Y-91308500D01*
X214635527Y-91308500D01*
X214635528Y-91308500D01*
X214654543Y-91305634D01*
X214903553Y-91268102D01*
X214903554Y-91268101D01*
X214903558Y-91268101D01*
X215162572Y-91188206D01*
X215406786Y-91070599D01*
X215630743Y-90917907D01*
X215829442Y-90733542D01*
X215998443Y-90521621D01*
X216133971Y-90286879D01*
X216232999Y-90034559D01*
X216293315Y-89770299D01*
X216313571Y-89500000D01*
X216312701Y-89488393D01*
X216293316Y-89229710D01*
X216293315Y-89229705D01*
X216293315Y-89229701D01*
X216258312Y-89076345D01*
X218041500Y-89076345D01*
X218041500Y-90873654D01*
X218048011Y-90934202D01*
X218048011Y-90934204D01*
X218098885Y-91070599D01*
X218099111Y-91071204D01*
X218186739Y-91188261D01*
X218303796Y-91275889D01*
X218440799Y-91326989D01*
X218468050Y-91329918D01*
X218501345Y-91333499D01*
X218501362Y-91333500D01*
X220298638Y-91333500D01*
X220298654Y-91333499D01*
X220325692Y-91330591D01*
X220359201Y-91326989D01*
X220496204Y-91275889D01*
X220613261Y-91188261D01*
X220700889Y-91071204D01*
X220746138Y-90949887D01*
X220788009Y-90893956D01*
X220853474Y-90869539D01*
X220921746Y-90884391D01*
X220953545Y-90909236D01*
X221016760Y-90977906D01*
X221194424Y-91116189D01*
X221194425Y-91116189D01*
X221194427Y-91116191D01*
X221254314Y-91148600D01*
X221392426Y-91223342D01*
X221605365Y-91296444D01*
X221827431Y-91333500D01*
X222052569Y-91333500D01*
X222274635Y-91296444D01*
X222487574Y-91223342D01*
X222685576Y-91116189D01*
X222863240Y-90977906D01*
X222984594Y-90846082D01*
X223015715Y-90812276D01*
X223015715Y-90812275D01*
X223015722Y-90812268D01*
X223109749Y-90668347D01*
X223162894Y-90622994D01*
X223232125Y-90613570D01*
X223295461Y-90643072D01*
X223315130Y-90665048D01*
X223441890Y-90846078D01*
X223608917Y-91013105D01*
X223802421Y-91148600D01*
X224016507Y-91248429D01*
X224016516Y-91248433D01*
X224230000Y-91305634D01*
X224230000Y-90408012D01*
X224287007Y-90440925D01*
X224414174Y-90475000D01*
X224545826Y-90475000D01*
X224672993Y-90440925D01*
X224730000Y-90408012D01*
X224730000Y-91305633D01*
X224943483Y-91248433D01*
X224943492Y-91248429D01*
X225157578Y-91148600D01*
X225351082Y-91013105D01*
X225518105Y-90846082D01*
X225644868Y-90665048D01*
X225699445Y-90621423D01*
X225768944Y-90614231D01*
X225831298Y-90645753D01*
X225850251Y-90668350D01*
X225944276Y-90812265D01*
X225944284Y-90812276D01*
X226096756Y-90977902D01*
X226096760Y-90977906D01*
X226274424Y-91116189D01*
X226274425Y-91116189D01*
X226274427Y-91116191D01*
X226334314Y-91148600D01*
X226472426Y-91223342D01*
X226685365Y-91296444D01*
X226907431Y-91333500D01*
X227132569Y-91333500D01*
X227354635Y-91296444D01*
X227567574Y-91223342D01*
X227765576Y-91116189D01*
X227943240Y-90977906D01*
X228064594Y-90846082D01*
X228095715Y-90812276D01*
X228095715Y-90812275D01*
X228095722Y-90812268D01*
X228186193Y-90673790D01*
X228239338Y-90628437D01*
X228308569Y-90619013D01*
X228371905Y-90648515D01*
X228393804Y-90673787D01*
X228484278Y-90812268D01*
X228484283Y-90812273D01*
X228484284Y-90812276D01*
X228636756Y-90977902D01*
X228636760Y-90977906D01*
X228814424Y-91116189D01*
X228814425Y-91116189D01*
X228814427Y-91116191D01*
X228874314Y-91148600D01*
X229012426Y-91223342D01*
X229225365Y-91296444D01*
X229447431Y-91333500D01*
X229672569Y-91333500D01*
X229894635Y-91296444D01*
X230107574Y-91223342D01*
X230305576Y-91116189D01*
X230483240Y-90977906D01*
X230604594Y-90846082D01*
X230635715Y-90812276D01*
X230635715Y-90812275D01*
X230635722Y-90812268D01*
X230726193Y-90673790D01*
X230779338Y-90628437D01*
X230848569Y-90619013D01*
X230911905Y-90648515D01*
X230933804Y-90673787D01*
X231024278Y-90812268D01*
X231024283Y-90812273D01*
X231024284Y-90812276D01*
X231176756Y-90977902D01*
X231176760Y-90977906D01*
X231354424Y-91116189D01*
X231354425Y-91116189D01*
X231354427Y-91116191D01*
X231414314Y-91148600D01*
X231552426Y-91223342D01*
X231765365Y-91296444D01*
X231987431Y-91333500D01*
X232212569Y-91333500D01*
X232434635Y-91296444D01*
X232647574Y-91223342D01*
X232845576Y-91116189D01*
X233023240Y-90977906D01*
X233144594Y-90846082D01*
X233175715Y-90812276D01*
X233175715Y-90812275D01*
X233175722Y-90812268D01*
X233266193Y-90673790D01*
X233319338Y-90628437D01*
X233388569Y-90619013D01*
X233451905Y-90648515D01*
X233473804Y-90673787D01*
X233564278Y-90812268D01*
X233564283Y-90812273D01*
X233564284Y-90812276D01*
X233716756Y-90977902D01*
X233716760Y-90977906D01*
X233894424Y-91116189D01*
X233894425Y-91116189D01*
X233894427Y-91116191D01*
X233954314Y-91148600D01*
X234092426Y-91223342D01*
X234305365Y-91296444D01*
X234527431Y-91333500D01*
X234752569Y-91333500D01*
X234974635Y-91296444D01*
X235187574Y-91223342D01*
X235385576Y-91116189D01*
X235563240Y-90977906D01*
X235684594Y-90846082D01*
X235715715Y-90812276D01*
X235715717Y-90812273D01*
X235715722Y-90812268D01*
X235838860Y-90623791D01*
X235929296Y-90417616D01*
X235984564Y-90199368D01*
X235984565Y-90199359D01*
X236003156Y-89975005D01*
X236003156Y-89974994D01*
X235984565Y-89750640D01*
X235984563Y-89750628D01*
X235947078Y-89602603D01*
X235929296Y-89532384D01*
X235870086Y-89397397D01*
X238196300Y-89397397D01*
X238196300Y-89602602D01*
X238228402Y-89805285D01*
X238228402Y-89805288D01*
X238291812Y-90000444D01*
X238291813Y-90000447D01*
X238377183Y-90167993D01*
X238384976Y-90183288D01*
X238505594Y-90349303D01*
X238650697Y-90494406D01*
X238816712Y-90615024D01*
X238877021Y-90645753D01*
X238999552Y-90708186D01*
X238999555Y-90708187D01*
X239077591Y-90733542D01*
X239194716Y-90771598D01*
X239397397Y-90803700D01*
X239397398Y-90803700D01*
X239602602Y-90803700D01*
X239602603Y-90803700D01*
X239805284Y-90771598D01*
X239805287Y-90771597D01*
X239805288Y-90771597D01*
X240000444Y-90708187D01*
X240000447Y-90708186D01*
X240183288Y-90615024D01*
X240349303Y-90494406D01*
X240494406Y-90349303D01*
X240615024Y-90183288D01*
X240708186Y-90000447D01*
X240771598Y-89805284D01*
X240803700Y-89602603D01*
X240803700Y-89397397D01*
X240771598Y-89194716D01*
X240771597Y-89194712D01*
X240771597Y-89194711D01*
X240708187Y-88999555D01*
X240708186Y-88999552D01*
X240646657Y-88878795D01*
X240615024Y-88816712D01*
X240494406Y-88650697D01*
X240349303Y-88505594D01*
X240183288Y-88384976D01*
X240000447Y-88291813D01*
X240000444Y-88291812D01*
X239805286Y-88228402D01*
X239670163Y-88207000D01*
X239602603Y-88196300D01*
X239397397Y-88196300D01*
X239329836Y-88207000D01*
X239194714Y-88228402D01*
X239194711Y-88228402D01*
X238999555Y-88291812D01*
X238999552Y-88291813D01*
X238816711Y-88384976D01*
X238650695Y-88505595D01*
X238505595Y-88650695D01*
X238384976Y-88816711D01*
X238291813Y-88999552D01*
X238291812Y-88999555D01*
X238228402Y-89194711D01*
X238228402Y-89194714D01*
X238196300Y-89397397D01*
X235870086Y-89397397D01*
X235838860Y-89326209D01*
X235822706Y-89301484D01*
X235715723Y-89137734D01*
X235715715Y-89137723D01*
X235563243Y-88972097D01*
X235563238Y-88972092D01*
X235385577Y-88833812D01*
X235385572Y-88833808D01*
X235187580Y-88726661D01*
X235187577Y-88726659D01*
X235187574Y-88726658D01*
X235187571Y-88726657D01*
X235187569Y-88726656D01*
X234974637Y-88653556D01*
X234752569Y-88616500D01*
X234527431Y-88616500D01*
X234305362Y-88653556D01*
X234092430Y-88726656D01*
X234092419Y-88726661D01*
X233894427Y-88833808D01*
X233894422Y-88833812D01*
X233716761Y-88972092D01*
X233716756Y-88972097D01*
X233564284Y-89137723D01*
X233564276Y-89137734D01*
X233473808Y-89276206D01*
X233420662Y-89321562D01*
X233351431Y-89330986D01*
X233288095Y-89301484D01*
X233266192Y-89276206D01*
X233175723Y-89137734D01*
X233175715Y-89137723D01*
X233023243Y-88972097D01*
X233023238Y-88972092D01*
X232845577Y-88833812D01*
X232845572Y-88833808D01*
X232647580Y-88726661D01*
X232647577Y-88726659D01*
X232647574Y-88726658D01*
X232647571Y-88726657D01*
X232647569Y-88726656D01*
X232434637Y-88653556D01*
X232212569Y-88616500D01*
X231987431Y-88616500D01*
X231765362Y-88653556D01*
X231552430Y-88726656D01*
X231552419Y-88726661D01*
X231354427Y-88833808D01*
X231354422Y-88833812D01*
X231176761Y-88972092D01*
X231176756Y-88972097D01*
X231024284Y-89137723D01*
X231024276Y-89137734D01*
X230933808Y-89276206D01*
X230880662Y-89321562D01*
X230811431Y-89330986D01*
X230748095Y-89301484D01*
X230726192Y-89276206D01*
X230635723Y-89137734D01*
X230635715Y-89137723D01*
X230483243Y-88972097D01*
X230483238Y-88972092D01*
X230305577Y-88833812D01*
X230305572Y-88833808D01*
X230107580Y-88726661D01*
X230107577Y-88726659D01*
X230107574Y-88726658D01*
X230107571Y-88726657D01*
X230107569Y-88726656D01*
X229894637Y-88653556D01*
X229672569Y-88616500D01*
X229447431Y-88616500D01*
X229225362Y-88653556D01*
X229012430Y-88726656D01*
X229012419Y-88726661D01*
X228814427Y-88833808D01*
X228814422Y-88833812D01*
X228636761Y-88972092D01*
X228636756Y-88972097D01*
X228484284Y-89137723D01*
X228484276Y-89137734D01*
X228393808Y-89276206D01*
X228340662Y-89321562D01*
X228271431Y-89330986D01*
X228208095Y-89301484D01*
X228186192Y-89276206D01*
X228095723Y-89137734D01*
X228095715Y-89137723D01*
X227943243Y-88972097D01*
X227943238Y-88972092D01*
X227765577Y-88833812D01*
X227765572Y-88833808D01*
X227567580Y-88726661D01*
X227567577Y-88726659D01*
X227567574Y-88726658D01*
X227567571Y-88726657D01*
X227567569Y-88726656D01*
X227354637Y-88653556D01*
X227132569Y-88616500D01*
X226907431Y-88616500D01*
X226685362Y-88653556D01*
X226472430Y-88726656D01*
X226472419Y-88726661D01*
X226274427Y-88833808D01*
X226274422Y-88833812D01*
X226096761Y-88972092D01*
X226096756Y-88972097D01*
X225944284Y-89137723D01*
X225944276Y-89137734D01*
X225850251Y-89281650D01*
X225797105Y-89327007D01*
X225727873Y-89336430D01*
X225664538Y-89306928D01*
X225644868Y-89284951D01*
X225518113Y-89103926D01*
X225518108Y-89103920D01*
X225351082Y-88936894D01*
X225157578Y-88801399D01*
X224943492Y-88701570D01*
X224943486Y-88701567D01*
X224730000Y-88644364D01*
X224730000Y-89541988D01*
X224672993Y-89509075D01*
X224545826Y-89475000D01*
X224414174Y-89475000D01*
X224287007Y-89509075D01*
X224230000Y-89541988D01*
X224230000Y-88644364D01*
X224229999Y-88644364D01*
X224016513Y-88701567D01*
X224016507Y-88701570D01*
X223802422Y-88801399D01*
X223802420Y-88801400D01*
X223608926Y-88936886D01*
X223608920Y-88936891D01*
X223441891Y-89103920D01*
X223441890Y-89103922D01*
X223315131Y-89284952D01*
X223260554Y-89328577D01*
X223191055Y-89335769D01*
X223128701Y-89304247D01*
X223109752Y-89281656D01*
X223015722Y-89137732D01*
X223015715Y-89137725D01*
X223015715Y-89137723D01*
X222863243Y-88972097D01*
X222863238Y-88972092D01*
X222685577Y-88833812D01*
X222685572Y-88833808D01*
X222487580Y-88726661D01*
X222487577Y-88726659D01*
X222487574Y-88726658D01*
X222487571Y-88726657D01*
X222487569Y-88726656D01*
X222274637Y-88653556D01*
X222052569Y-88616500D01*
X221827431Y-88616500D01*
X221605362Y-88653556D01*
X221392430Y-88726656D01*
X221392419Y-88726661D01*
X221194427Y-88833808D01*
X221194422Y-88833812D01*
X221016761Y-88972092D01*
X220953548Y-89040760D01*
X220893661Y-89076750D01*
X220823823Y-89074649D01*
X220766207Y-89035124D01*
X220746138Y-89000110D01*
X220700889Y-88878796D01*
X220667214Y-88833812D01*
X220613261Y-88761739D01*
X220496204Y-88674111D01*
X220359203Y-88623011D01*
X220298654Y-88616500D01*
X220298638Y-88616500D01*
X218501362Y-88616500D01*
X218501345Y-88616500D01*
X218440797Y-88623011D01*
X218440795Y-88623011D01*
X218303795Y-88674111D01*
X218186739Y-88761739D01*
X218099111Y-88878795D01*
X218048011Y-89015795D01*
X218048011Y-89015797D01*
X218041500Y-89076345D01*
X216258312Y-89076345D01*
X216232999Y-88965441D01*
X216133971Y-88713121D01*
X215998443Y-88478379D01*
X215829442Y-88266458D01*
X215630743Y-88082093D01*
X215406786Y-87929401D01*
X215406780Y-87929398D01*
X215406779Y-87929397D01*
X215406778Y-87929396D01*
X215162574Y-87811795D01*
X215162576Y-87811795D01*
X214903559Y-87731899D01*
X214903553Y-87731897D01*
X214635535Y-87691500D01*
X214635528Y-87691500D01*
X214364472Y-87691500D01*
X214364464Y-87691500D01*
X214096446Y-87731897D01*
X214096440Y-87731899D01*
X213837427Y-87811794D01*
X213593219Y-87929398D01*
X213369256Y-88082093D01*
X213170560Y-88266456D01*
X213170558Y-88266458D01*
X213001557Y-88478379D01*
X212866029Y-88713120D01*
X212767003Y-88965435D01*
X212766997Y-88965454D01*
X212706684Y-89229705D01*
X212706683Y-89229710D01*
X212686429Y-89499995D01*
X212254500Y-89499995D01*
X212254500Y-87378500D01*
X212274185Y-87311461D01*
X212326989Y-87265706D01*
X212378500Y-87254500D01*
X241621500Y-87254500D01*
X241688539Y-87274185D01*
G37*
%TD.AperFunction*%
%TD*%
M02*
